<svg width="30" height="30" viewBox="0 0 30 30" fill="none" xmlns="http://www.w3.org/2000/svg">
<path d="M8.4375 24.6064C10.3075 26.0793 12.6196 26.8786 15 26.8752C17.4769 26.8752 19.7562 26.0277 21.5625 24.6064M11.875 6.09204C7.53188 7.42642 4.375 11.4695 4.375 16.2502C4.375 17.4533 4.575 18.6095 4.94375 19.6877M18.125 6.09204C22.4681 7.42642 25.625 11.4695 25.625 16.2502C25.625 17.4533 25.425 18.6095 25.0563 19.6877" stroke="#138DB6" stroke-width="2"/>
<path d="M26.875 22.5001C26.875 23.3389 26.545 24.1001 26.0075 24.6614C25.5056 25.1857 24.8367 25.519 24.1158 25.604C23.3949 25.689 22.6669 25.5203 22.0568 25.127C21.4467 24.7337 20.9925 24.1402 20.7723 23.4486C20.5521 22.7569 20.5795 22.0101 20.8499 21.3364C21.1203 20.6628 21.6168 20.1043 22.2541 19.7568C22.8915 19.4093 23.6299 19.2945 24.3426 19.4322C25.0553 19.5699 25.6979 19.9513 26.16 20.5112C26.6221 21.071 26.8749 21.7742 26.875 22.5001ZM9.375 22.5001C9.375 23.3389 9.045 24.1001 8.5075 24.6614C8.00556 25.1857 7.33671 25.519 6.6158 25.604C5.89489 25.689 5.16688 25.5203 4.55677 25.127C3.94666 24.7337 3.49251 24.1402 3.27228 23.4486C3.05206 22.7569 3.0795 22.0101 3.3499 21.3364C3.6203 20.6628 4.11679 20.1043 4.75412 19.7568C5.39145 19.4093 6.12987 19.2945 6.84261 19.4322C7.55534 19.5699 8.19791 19.9513 8.66001 20.5112C9.12211 21.071 9.37491 21.7742 9.375 22.5001ZM18.125 5.6251C18.125 6.46385 17.795 7.2251 17.2575 7.78635C16.7556 8.31075 16.0867 8.64404 15.3658 8.72901C14.6449 8.81398 13.9169 8.64533 13.3068 8.25201C12.6967 7.8587 12.2425 7.26525 12.0223 6.57356C11.8021 5.88187 11.8295 5.13509 12.0999 4.46143C12.3703 3.78777 12.8668 3.22926 13.5041 2.88178C14.1415 2.5343 14.8799 2.41954 15.5926 2.5572C16.3053 2.69485 16.9479 3.07634 17.41 3.63616C17.8721 4.19597 18.1249 4.8992 18.125 5.6251Z" fill="#138DB6" stroke="#138DB6" stroke-width="2" stroke-linecap="round" stroke-linejoin="round"/>
</svg>
