<svg width="108" height="108" viewBox="0 0 108 108" fill="none" xmlns="http://www.w3.org/2000/svg">
<path d="M16.6216 20.054C25.1698 10.3973 38.8153 3.92274 51.7734 3.55838C53.3536 3.5018 53.2497 3.5546 53.6949 3.55152C53.8 3.55195 53.9016 3.55234 54 3.55269C55.0437 3.55803 55.724 3.54752 56.5289 3.58841C60.8322 3.82129 64.8297 4.53592 68.8617 5.78371C72.9893 7.16146 70.9924 6.63126 72.4002 7.17346C75.1041 8.33453 72.8414 7.25333 73.9229 7.67415C77.0284 9.01937 80.0185 10.7016 82.7876 12.6525C82.1013 12.1893 81.4061 11.7441 80.6914 11.3102C81.9428 12.0933 83.6604 13.3185 81.598 11.9628C82.0477 12.2706 82.4626 12.5667 82.9151 12.8971C83.0787 12.9314 85.1711 14.4921 85.3656 14.6319C85.5726 14.7548 84.4115 13.8546 84.4171 13.8619C84.5709 13.8267 89.1142 17.7916 89.3577 18.1662C90.1624 18.9854 89.4098 18.3144 90.096 19.0082C91.2536 20.2213 90.6002 19.3089 91.9833 21.1179C92.6121 21.7684 92.6451 21.8454 93.3583 22.7392C93.4516 22.8574 93.4034 22.7464 93.4453 22.7979C94.5285 24.1509 93.6651 23.1343 93.6684 23.1436C93.7296 23.2957 94.8595 24.7682 95.0731 25.0969C97.8079 29.1707 99.4701 32.3965 101.23 37.253C101.629 38.2946 102.605 41.5636 102.809 42.6219C103.036 43.6643 102.872 43.1144 102.972 43.6642C103.24 44.5183 103.434 45.3597 103.645 47.3534C103.805 48.085 103.752 48.0005 103.903 49.4216C104.03 50.6056 104.211 52.6782 104.132 54C104.126 52.4876 104.101 52.6491 103.994 50.9587C104.044 50.3848 103.262 44.5623 103.203 45.0152C103.218 45.2436 103.551 47.1611 103.545 47.2363C103.563 47.6726 103.381 46.6116 103.235 45.6569C103.282 45.8919 103.336 46.1767 103.383 46.4305C103.08 44.2875 103.149 45.7854 103.006 44.1455C102.986 43.9431 103.022 44.0168 102.975 43.6833C102.952 43.6176 103.014 44.0242 102.939 43.6786C102.862 43.326 102.751 42.6501 102.693 42.5592C102.613 42.421 102.956 43.8726 102.97 43.9847C102.971 43.9858 102.971 43.9869 102.972 43.988C103.142 44.9629 102.726 42.9363 102.689 42.8428C102.513 42.2272 102.593 42.6552 102.338 41.733C102.195 41.2053 101.827 39.8597 101.667 39.3734C101.513 38.8883 101.723 39.6522 101.617 39.3264C101.512 39.0004 101.399 38.5857 101.265 38.2054C101.208 38.0426 101.185 38.0595 101.158 37.9808C100.856 37.1388 101.103 37.6738 100.825 36.9119C100.649 36.4136 99.9475 34.7939 100.381 35.9302C100.163 35.3871 99.9442 34.8639 99.7099 34.3305C99.8482 34.6715 99.9884 35.0214 100.114 35.3563C99.7138 34.3414 99.4663 33.9053 99.18 33.2848C98.8911 32.6651 98.6733 32.087 98.307 31.4269C97.5301 30.0184 99.3474 33.5608 99.4998 34.0356C99.5742 34.2133 99.2356 33.5543 99.186 33.4521C98.9722 32.9942 98.743 32.4431 98.5685 32.093C97.9426 30.8444 97.5002 30.1129 96.8256 28.9683C94.5513 25.053 90.9712 20.6754 87.8055 17.79C86.6362 16.7066 85.9244 16.0611 85.3707 15.6067C84.0646 14.5581 83.8725 14.469 82.6891 13.6156C80.9277 12.3422 78.3124 10.7385 76.6941 9.91561C75.579 9.33267 74.5275 8.89882 74.2288 8.76664C70.0936 6.8751 64.7165 5.44392 60.9889 4.96442C59.2383 4.72256 58.4005 4.62749 58.0378 4.59563C56.47 4.4875 56.8836 4.55301 55.6168 4.49796C54.9302 4.47534 54.8008 4.44175 54.7087 4.43828C54.3992 4.42958 54.1834 4.43289 54 4.4395C53.7018 4.45065 53.4899 4.46983 53.0977 4.47744C49.4628 4.55368 45.9643 4.96555 42.4586 5.79441C42.2047 5.85493 42.2224 5.82986 42.0585 5.87123C41.3567 6.05332 41.6903 5.99971 40.9565 6.19837C39.4344 6.61799 37.888 7.11193 36.3222 7.70578C36.1671 7.76494 36.0876 7.76638 35.7345 7.90591C35.3812 8.04671 35.1241 8.17668 34.5746 8.40873C33.1385 9.01832 31.7376 9.65962 30.287 10.4483C30.0466 10.5793 29.7656 10.7711 29.4098 10.9744C28.2907 11.6052 26.6682 12.6063 25.7657 13.2402C22.7779 15.3154 20.2483 17.5488 17.8988 20.0394C17.347 20.6252 16.8522 21.1396 16.5766 21.4554C15.9594 22.1704 16.4419 21.6453 15.8271 22.3783C10.8365 28.3876 7.25435 35.6146 5.57062 43.3427C4.88874 46.3732 4.49186 50.1466 4.45128 53.1451C4.44441 53.4987 4.43939 53.7712 4.43443 54C4.42314 54.5795 4.40701 54.8763 4.42445 55.5088C4.48228 57.0739 4.54818 57.3712 4.70614 59.0141C4.84125 60.3367 5.00565 61.8425 5.26499 63.1994C5.52865 64.5481 5.71017 65.1671 6.11131 66.6938C6.44421 67.9551 6.96483 69.7008 7.46007 71.0282C11.9497 83.2441 21.2668 93.3809 33.1219 98.927C37.2956 100.903 42.2472 102.388 46.9715 103.088C47.415 103.152 46.7264 103.115 48.1567 103.283C48.9312 103.365 49.9989 103.448 51.7873 103.528C52.5176 103.559 53.2554 103.575 54 103.575C63.9719 103.643 74.483 100.414 82.6625 94.525C96.1609 85.195 103.487 68.4327 103.758 54.3857C103.784 53.6907 103.899 54.0673 103.929 54.4855C103.902 54.8726 103.867 55.2289 103.827 55.6305C103.948 56.1428 103.941 56.0501 103.794 57.9346C103.69 59.0892 103.83 58.172 103.792 58.7889C103.779 59.5967 103.269 63.3391 103.279 62.6047C103.256 62.8381 103.233 63.0533 103.207 63.2801C102.717 65.97 102.035 68.5438 101.15 71.0708C100.996 71.5062 101.016 71.5379 100.85 71.9865C100.4 73.1887 99.9821 74.1207 99.4248 75.3192C99.1186 75.9672 99.1076 76.0756 98.6786 76.9137C98.2412 77.7471 98.216 77.7082 97.6297 78.8525C98.108 78.1617 96.1865 81.3653 95.4017 82.4374C95.2968 82.5992 94.4262 83.9191 93.9029 84.5788C93.3854 85.2455 92.5586 86.2224 91.7097 87.212C91.3116 87.6756 91.0925 87.9783 90.6425 88.4616C90.3256 88.801 89.9123 89.1769 89.4954 89.5904C89.082 90.0072 88.1786 90.9015 88.0047 91.057C87.3845 91.6246 88.0536 90.982 87.6268 91.3669C85.567 93.2275 82.9773 95.1613 80.6638 96.6202C80.3796 96.8003 80.7904 96.5791 80.753 96.6035C78.8252 97.8315 79.8422 97.1558 79.3 97.4499C78.7954 97.774 74.9066 99.7653 74.8804 99.7875C74.732 99.7854 73.8639 100.225 73.6302 100.323C72.7275 100.709 72.8849 100.583 72.0043 100.946C71.68 101.077 72.3297 100.869 71.9783 101.002C71.1057 101.331 70.3049 101.554 69.1233 101.923C68.8371 102.011 68.755 102.067 68.2468 102.216C67.7417 102.379 65.5761 102.899 66.5845 102.7C65.2685 102.982 65.0047 103.073 63.4676 103.375C63.0773 103.448 62.5675 103.499 61.7313 103.643C61.449 103.691 61.4649 103.732 61.0391 103.793C60.0658 103.929 59.1326 103.994 57.8916 104.088C56.6256 104.184 55.3294 104.243 54 104.25C52.8706 104.255 51.7553 104.222 50.6319 104.143C49.9709 104.092 50.1378 104.066 49.1824 103.979C49.0456 103.968 47.881 103.884 47.2244 103.787C46.8295 103.744 44.7807 103.381 44.3757 103.289C43.7008 103.153 43.5687 103.164 43.1998 103.076C42.1353 102.811 43.0048 102.955 41.7062 102.724C41.2985 102.575 40.5506 102.377 40.33 102.254C39.8809 102.192 39.3444 101.974 38.5085 101.726C37.6749 101.478 36.9642 101.349 36.8114 101.154C36.4208 101.037 34.8005 100.427 34.5346 100.309C33.7402 99.9762 34.1773 100.125 33.5809 99.8676C33.4766 99.821 33.574 99.8959 32.9087 99.5873C32.4592 99.4141 29.3291 97.7817 29.162 97.6477C27.1037 96.4069 30.3052 98.2909 30.7912 98.4795C30.8691 98.5281 30.9463 98.5762 31.0301 98.6272C31.9712 99.1189 31.4562 98.7966 31.0349 98.5655C30.6131 98.3354 29.8121 97.93 29.473 97.7162C29.3044 97.6098 29.4432 97.6149 29.9661 97.9123C29.4125 97.5833 30.1926 97.9887 29.979 97.8489C29.7322 97.7142 27.2591 96.2315 27.2356 96.2376C27.69 96.5284 28.2639 96.8774 28.7332 97.1539C29.3216 97.5674 27.3144 96.6824 25.7188 95.474C24.5725 94.5888 26.5275 95.9509 23.7392 93.9742C24.157 94.2939 24.5115 94.5613 24.8988 94.8413C24.9117 94.9106 24.3131 94.4152 23.9855 94.1869C23.8264 94.0787 24.7569 94.8111 23.9249 94.2075C23.2606 93.6192 22.6767 93.2636 21.5409 92.3078C21.8633 92.5652 22.1891 92.8189 22.5172 93.0679C20.6122 91.4454 25.1163 95.1133 21.3817 91.9999C21.8269 92.3795 22.2747 92.7517 22.7357 93.1163C22.5293 92.9185 22.9309 93.1457 22.742 92.9742C22.2469 92.5258 21.4741 91.9106 20.8686 91.3665C20.6037 91.1286 20.782 91.2605 20.7597 91.2405C20.3984 90.9132 20.4587 91.007 20.1421 90.719C19.7394 90.3603 18.6465 89.2531 18.4713 89.072C18.0078 88.6127 18.7291 89.4275 18.6832 89.3848C18.367 89.1119 17.7935 88.4826 17.7987 88.5395C19.1837 90.0523 23.6244 93.9523 19.6031 90.43C20.6473 91.4722 20.2603 91.2672 18.7289 89.7909C17.4833 88.5495 18.3059 89.3315 17.6949 88.6502C17.6064 88.5706 16.0394 86.8171 15.9516 86.7333C16.0566 86.7668 15.6002 86.1521 15.9786 86.5028C16.0324 86.5556 16.6636 87.2814 16.4788 86.9969C16.3857 86.8553 16.1117 86.4569 16.186 86.4952C16.0411 86.3598 15.8889 86.2183 15.7428 86.0792C14.8182 84.9761 14.7191 84.7931 14.2713 84.1457C14.2799 84.184 14.6634 84.8069 14.0133 83.9132C13.9807 83.8667 13.9696 83.8138 13.6489 83.3541C13.0061 82.4206 12.8838 82.2192 13.444 82.8863C12.0687 80.9892 11.863 80.517 10.6403 78.4543C10.7979 78.9133 11.2117 79.6538 12.4342 81.4839C12.468 81.5761 12.4741 81.6259 12.5098 81.7206C10.958 79.2329 11.7399 80.4524 10.8438 79.0537C10.6181 78.7143 9.59995 76.7987 9.88645 77.4662C9.94861 77.6256 10.6073 78.8053 10.5128 78.6806C10.4885 78.6599 9.69033 77.2252 9.63527 77.0911C8.90078 75.4296 10.3111 78.3442 8.19144 73.8269C8.1361 73.7009 8.09098 73.6675 7.98236 73.4211C7.78036 72.9584 7.80816 72.9401 7.63273 72.5245C7.45828 72.1089 7.19067 71.5374 6.99923 70.8853C6.65122 69.6932 7.66477 72.4377 8.16536 73.6386C8.28913 74.1524 5.31265 65.345 5.39663 64.7276C4.83834 62.2716 5.73079 66.3661 5.79554 66.5693C5.80909 66.658 5.65231 66.6551 6.02705 67.653C6.13726 67.9477 5.82062 66.6751 6.04412 67.4248C6.27162 68.1728 6.14831 67.8859 6.16059 67.9414C6.20358 68.132 6.46017 68.9202 6.48919 69.026C6.92449 70.6337 6.72573 70.5364 6.2613 68.3719C5.94184 67.4672 6.50998 69.5939 6.13358 68.4627C5.67838 67.0836 5.49559 66.0302 5.45471 65.8549C4.99923 63.7155 5.44332 66.2011 4.92636 63.5769C4.66681 62.1139 5.39699 65.7502 4.7727 62.4149C4.32935 59.6061 4.54033 61.1274 4.43024 60.934C4.40668 60.8881 4.17322 59.3459 4.47257 61.4477C4.50067 61.5041 4.54273 61.6114 4.58133 61.7428C4.64553 62.262 4.70203 63.1356 4.75192 63.4079C4.99559 64.7366 5.04168 64.6655 5.15987 65.457C5.09481 64.8862 5.26448 65.8004 5.36388 66.1337C5.74228 67.3696 5.29395 65.7373 6.0324 68.5434C5.95229 68.173 5.88576 67.8365 5.81663 67.4759C5.91114 67.8106 6.00915 68.1442 6.11041 68.476C6.18878 68.9913 6.77961 70.7511 6.19465 69.1759C6.79448 71.1036 7.12643 71.8499 7.33084 72.2443C7.37071 72.3188 7.48482 72.5991 7.62009 72.9275C7.6083 72.8597 7.61821 72.763 7.6444 72.8127C7.87601 73.2571 8.10648 74.0029 7.97202 73.7726C8.06898 74.002 8.14699 74.183 8.17439 74.2469C8.34847 74.6521 7.97195 73.8731 8.10715 74.2043C8.14818 74.3155 8.67229 75.4414 8.675 75.4664C8.68605 75.6282 7.79325 73.7837 9.60907 77.4737C9.70988 77.5326 8.83285 75.8384 9.12092 76.2423C9.42238 76.6789 9.82701 77.6747 10.0263 77.8326C10.0538 77.9166 10.0606 77.9568 10.0807 78.0313C10.9243 79.4608 10.8826 79.5091 11.1256 79.9548C11.5764 80.8377 14.1421 84.5694 11.9284 81.1599C12.2569 81.6548 12.5979 82.156 12.9418 82.6373C12.9113 82.8232 12.7022 82.5306 14.4125 84.8134C14.7959 85.3108 14.8749 85.5108 15.3249 85.9385C15.2087 85.9261 16.4507 87.312 16.566 87.441C17.2521 88.3245 14.4743 85.2484 14.2884 84.7194C13.8225 84.1971 13.8767 84.1582 13.4088 83.5365C12.7417 82.6317 12.6362 82.5102 11.943 81.3696C11.1241 80.3333 14.8543 85.6172 12.5243 82.4611C9.65407 80.0232 2.49721 61.7478 3.54837 54C3.5465 53.2449 3.56133 52.6123 3.57773 52.1268C4.14284 42.4692 5.74875 37.376 9.74314 29.6706C10.0617 28.8577 13.6758 23.4673 13.0036 24.644C12.8896 24.8013 11.3488 27.1198 12.7498 25.1863C12.4394 25.5617 13.228 24.4002 13.2983 24.3057C14.8685 22.1061 13.8223 23.2682 16.6216 20.054ZM26.592 12.4537C22.0865 15.5808 25.4162 13.311 24.5599 14.0676C25.1242 13.6513 25.6956 13.248 26.2778 12.8554C26.1207 12.9522 25.9659 13.0486 25.8098 13.1472C25.8092 13.1477 25.8085 13.1481 25.8078 13.1486C26.066 12.9148 26.3287 12.6822 26.592 12.4537ZM100.642 36.8406C100.553 36.6453 100.464 36.453 100.366 36.2426C100.112 35.5647 99.8451 34.8995 99.5609 34.2326C99.6053 34.3074 99.6486 34.3797 99.6927 34.4549C100.029 35.2416 100.344 36.0331 100.642 36.8406ZM8.49028 74.3358C8.87585 75.2899 8.90192 75.1726 9.47671 76.4126C9.45414 76.2366 9.4232 76.0447 9.39829 75.8611C8.93849 74.933 8.81838 74.7309 8.3797 73.6933C8.41427 73.8212 8.45052 73.9519 8.48484 74.0769C8.56439 74.2469 8.65032 74.427 8.72888 74.5907C8.79673 74.8783 8.05806 73.2335 8.4887 74.3326C8.48923 74.3337 8.48975 74.3347 8.49028 74.3358ZM13.7914 83.4054C14.1001 83.863 15.4323 85.6019 15.6511 85.8083C16.3272 86.5596 12.486 81.738 15.3444 85.2701C15.3403 85.2466 15.3623 85.2555 15.3713 85.2483C14.8538 84.6028 14.3523 83.9456 13.8637 83.2713C13.8529 83.3344 13.7987 83.3372 13.7914 83.4054ZM12.6196 26.3518C12.103 27.0288 10.1063 30.5439 10.8145 29.4311C11.0123 29.099 11.8769 27.5157 12.2616 26.9467C12.5067 26.5768 12.2656 27.0131 12.7385 26.2767C12.7019 26.2986 12.6718 26.3072 12.6184 26.3539C12.6188 26.3532 12.6192 26.3525 12.6196 26.3518ZM13.3301 24.9048C12.8228 25.6252 12.3296 26.3698 11.8589 27.1208C12.2426 26.5985 12.9347 25.5316 13.0343 25.5095C12.9 25.7111 12.7686 25.9114 12.6372 26.1149C12.5216 26.2602 12.4083 26.4038 12.2958 26.5481C11.9124 27.2051 12.1682 26.8218 11.4132 28.0185C11.9554 27.3467 12.047 27.2236 13.3475 25.1817C13.1313 25.5876 13.5091 25.33 14.2057 24.1837C14.336 23.9685 13.7001 24.7985 13.6921 24.8076C13.5596 24.9105 13.8781 24.4236 13.7409 24.5373C13.6781 24.5876 13.3041 25.1067 13.2271 25.1696C13.19 25.1976 13.5136 24.6798 13.3301 24.9048ZM14.5641 23.6395C14.4213 23.8717 15.0361 23.1757 15.536 22.547C16.3194 21.5674 15.0042 23.0469 14.5641 23.6395ZM100.644 36.845C100.643 36.8436 100.643 36.8421 100.642 36.8406C100.642 36.8413 100.643 36.842 100.643 36.8428C100.643 36.8435 100.644 36.8443 100.644 36.845ZM12.2023 81.0439C12.5735 81.5775 13.1172 82.3714 13.1087 82.2908C13.2826 82.5548 13.4611 82.8198 13.64 83.0804C13.6475 83.0713 13.6533 83.0598 13.6607 83.0507C13.1106 82.276 12.5841 81.4878 12.0796 80.6834C12.1179 80.8002 12.1517 80.9096 12.2023 81.0439ZM18.6819 89.1157C19.5277 89.9623 18.8522 89.2187 19.0561 89.3858C19.2579 89.5547 20.0142 90.3036 19.9489 90.1904C19.438 89.7078 18.9159 89.193 18.4201 88.6825C18.5232 88.844 18.587 88.9652 18.6836 89.1174C18.6831 89.1169 18.6825 89.1163 18.6819 89.1157ZM47.3801 4.71053C46.5771 4.81313 46.8985 4.71141 45.3239 5.02347C45.3251 5.02327 45.3263 5.02306 45.3275 5.02285C46.8366 4.78573 48.782 4.56824 50.4526 4.42379C49.4247 4.45735 48.6477 4.56273 47.3801 4.71053ZM7.51361 71.6696C7.3595 71.3615 7.91234 72.8591 8.08127 73.1687C8.34242 73.6747 7.73619 72.1441 7.51361 71.6696ZM79.0601 10.7204C80.1754 11.2752 78.2258 9.93497 75.98 8.89891C75.7888 8.80489 77.1985 9.54808 76.7684 9.3525C76.726 9.33096 75.945 8.93783 75.7432 8.85776C75.5427 8.77633 75.7337 8.90199 75.4091 8.76183C74.8425 8.51237 73.5721 7.90707 73.1306 7.76204C73.073 7.74085 73.8578 8.11766 73.9066 8.14272C74.7163 8.52074 75.5135 8.84249 75.6379 8.90224C76.2787 9.21051 76.1619 9.20418 76.3187 9.2927C76.6135 9.46009 77.1504 9.71781 77.1865 9.73908C78.1219 10.2717 75.9489 9.12231 75.6347 9.00541C74.8078 8.66495 75.5517 9.0271 73.5815 8.18582C73.394 8.10561 71.1526 7.1687 73.9573 8.40036C68.3658 6.19676 76.7385 9.57577 77.538 10.184C77.9401 10.3897 77.3578 10.029 77.6075 10.1429C78.181 10.4007 79.1115 10.9296 79.0578 10.8315C78.9435 10.6178 77.677 9.99171 76.8229 9.53527C76.9258 9.55795 76.9725 9.5523 77.1521 9.61632C76.8831 9.50349 78.986 10.669 79.06 10.7206C79.06 10.7205 79.0601 10.7204 79.0601 10.7204ZM64.8338 5.31895C63.5124 4.99754 63.5985 5.09654 62.3832 4.83642C61.292 4.72468 63.4215 5.07803 63.6623 5.14112C64.7804 5.38615 64.7417 5.45546 65.8835 5.70388C65.5042 5.56447 65.1949 5.44558 64.8338 5.31895ZM75.9043 9.23111C75.0731 8.86971 76.5293 9.58013 76.5813 9.62162C77.1939 9.99009 72.8335 7.89214 75.9043 9.23111ZM9.78892 30.7978C9.57338 31.2045 9.74165 30.9629 9.56601 31.3287C9.38593 31.693 8.75473 32.932 8.7945 32.9117C8.82475 32.8862 9.99107 30.6265 8.89475 32.9296C8.9434 32.8571 8.94004 32.8877 8.96863 32.8551C9.2663 32.2229 9.58258 31.5874 9.90735 30.9678C9.69523 31.2905 9.48055 31.624 9.28314 31.9401C9.43097 31.5726 9.56752 31.3932 9.57683 31.3745C9.57679 31.3745 9.57675 31.3745 9.57672 31.3745C9.90728 30.7188 10.2807 29.8894 9.78892 30.7978ZM36.3917 7.40218C36.486 7.26316 35.5105 7.75085 35.1066 7.9334C34.7009 8.11158 34.1255 8.32275 34.3527 8.26925C35.0211 8.005 36.3789 7.41426 36.3917 7.40207C36.3917 7.40211 36.3917 7.40215 36.3917 7.40218ZM57.5633 4.26424C56.426 4.21522 56.6079 4.24418 55.2234 4.17319C55.2766 4.19746 55.3297 4.22231 55.3827 4.2464C56.4808 4.2839 56.4056 4.21007 57.679 4.32193C57.8868 4.34285 57.4382 4.35804 58.3772 4.41854C58.1071 4.36645 57.8325 4.31315 57.5633 4.26424ZM51.941 4.26589C53.2371 4.21842 54.2699 4.0091 51.8736 4.163C51.5197 4.19096 50.9683 4.31301 51.941 4.26589ZM16.6081 20.9195C15.1501 22.5926 16.8163 20.6997 17.236 20.3021C13.8538 24.1996 17.5869 19.8317 18.0496 19.5618C18.464 19.0877 19.2561 18.21 18.321 19.1296C17.9346 19.517 18.0948 19.394 18.0716 19.4173C17.3727 20.1422 17.4187 20.0192 16.6081 20.9195ZM67.1183 5.87758C67.037 5.85707 67.1552 5.92197 66.8964 5.85911C66.6368 5.7952 66.0596 5.62591 65.9969 5.6315C65.9344 5.63363 67.101 5.9484 67.4608 6.03879C67.8206 6.12605 67.8514 6.06668 67.1183 5.87758ZM58.7668 4.27953C57.6644 4.20208 59.4512 4.48303 59.6922 4.51754C61.7951 4.76566 58.7005 4.29329 58.7668 4.27953ZM20.0798 17.0953C18.1727 18.9872 19.6506 17.6845 20.9438 16.6214C21.101 16.4653 21.2636 16.3065 21.4208 16.1544C20.7195 16.8807 19.4275 18.0715 22.3576 15.4786C20.7048 16.8424 22.0632 15.6701 22.0721 15.6587C22.1493 15.382 19.8047 17.5359 20.0816 17.0936C20.081 17.0942 20.0804 17.0947 20.0798 17.0953ZM70.5447 6.98014C71.6501 7.34065 74.4425 8.49572 73.1667 7.89325C72.3019 7.56462 71.4245 7.25903 70.5447 6.98014ZM3.94381 56.4841C3.95669 57.4439 4.01987 58.3208 4.14818 59.4918C4.09013 58.4304 4.16591 59.1224 4.21707 59.4782C4.29402 60.0161 4.15292 58.7085 4.16006 58.7062C4.21476 58.7246 4.28412 59.5573 4.12917 57.6632C4.18016 58.1314 4.23715 58.5913 4.30071 59.0548C4.16559 57.6188 4.18448 57.2689 4.17562 56.3512C4.12755 57.2434 4.11469 56.0749 4.04823 55.0096C4.01306 54.477 3.9316 56.001 3.94399 56.4877C3.94393 56.4865 3.94387 56.4853 3.94381 56.4841ZM18.0758 19.0159C17.8952 19.226 17.737 19.4246 17.5679 19.6323C17.3694 19.8454 17.1723 20.0604 16.9775 20.2768C16.9421 20.2932 16.9101 20.3048 16.8711 20.3261C16.6103 20.6079 16.7265 20.5112 16.6518 20.5974C16.6517 20.5973 16.6516 20.5972 16.6516 20.5972C15.5874 21.8399 15.166 22.359 14.3388 23.3399C14.3756 23.3683 14.4123 23.3967 14.449 23.4252C14.6215 23.1952 14.7978 22.9644 14.9743 22.7375C15.0504 22.6027 15.1276 22.4677 15.2051 22.3334C15.4264 22.0844 15.6484 21.8395 15.8746 21.5949C16.0405 21.3858 16.2433 21.1374 16.3893 20.9582C17.362 20.0459 15.3109 22.2602 15.3506 22.3286C15.3508 22.3509 17.3379 20.0588 17.6392 19.7408C17.6806 19.6932 17.1569 20.1021 17.9601 19.3316C18.0887 19.2132 18.2713 19.3086 19.0022 18.3469C19.1078 18.2106 18.5881 18.5327 18.0758 19.0159ZM11.2276 27.6861C12.2035 26.2751 8.90947 31.673 10.3587 29.3579C10.0323 30.0671 10.1009 29.9383 10.5329 29.2843C10.5708 29.2267 10.3199 29.7054 10.3447 29.6667C10.7258 29.042 11.1644 28.2802 11.2148 28.3037C11.3139 28.1335 11.4085 27.9734 11.5098 27.8039C11.0356 28.4786 11.6878 27.3429 11.93 26.8958C12.0386 26.6911 11.746 27.1339 11.8366 26.9612C11.8691 26.8964 12.2859 26.2834 12.2889 26.2488C12.2906 26.1742 11.9823 26.5283 11.5329 27.1811C11.5329 27.181 11.5328 27.181 11.5328 27.181C11.4289 27.3502 11.3294 27.5156 11.2276 27.6861ZM39.7054 5.96847C40.007 5.95995 41.124 5.64105 38.9958 6.32273C39.1062 6.30329 39.2191 6.28335 39.3288 6.26492C39.6878 6.15339 40.0373 6.04902 40.4055 5.9438C41.4565 5.40906 43.5623 5.18301 42.2169 5.33902C42.0698 5.35598 41.2066 5.59178 42.0528 5.33397C42.0517 5.33421 42.0505 5.33446 42.0493 5.3347C40.8559 5.64789 40.7093 5.71902 39.7054 5.96847ZM32.0257 9.02061C29.5311 10.3959 35.6226 7.43321 34.5954 7.90134C34.4895 7.91892 31.8535 9.1691 32.0257 9.02061ZM54.1197 3.8159C54.0786 3.81572 54.0387 3.81567 54 3.81576C52.827 3.82303 52.7565 3.91549 52.8814 3.93952C53.0065 3.96436 53.8421 3.92696 54 3.93137C54.0051 3.93146 54.0096 3.93157 54.0132 3.93173C54.2034 3.93997 54.0918 3.94638 54 3.95377C53.923 3.96001 53.8599 3.96686 54 3.97536C54.0215 3.97668 54.0478 3.97806 54.0795 3.97952C54.2435 3.97446 56.464 4.06408 56.5621 4.0773C57.1301 4.08693 56.3052 3.97454 56.468 3.97523C56.9979 3.97356 57.7137 4.06009 57.8686 4.03581C58.2045 3.98054 56.8618 3.96748 56.6342 3.962C55.9555 3.93272 56.017 3.89242 55.5072 3.86678C54.9974 3.84337 54.6627 3.85362 54.2102 3.84817C54.0596 3.84661 54.1849 3.81636 54.1197 3.8159ZM49.8992 4.1588C51.2235 3.9845 47.981 4.18933 47.5991 4.28015C46.4783 4.46598 49.2698 4.21849 49.8992 4.1588ZM13.7968 24.2514C14.4866 23.2438 12.7605 25.5041 12.3418 26.2048C12.4348 26.0852 13.5524 24.5911 13.7968 24.2514ZM20.6319 16.5953C19.8087 17.3591 20.9759 16.4302 21.6909 15.8287C22.0669 15.4237 21.678 15.7633 21.2136 16.1621C20.7514 16.5624 21.2809 16.0062 20.6319 16.5953ZM67.8151 5.8203C67.5883 5.71902 63.7833 4.86342 65.956 5.40796C66.1226 5.43132 68.7606 6.1545 68.9532 6.22372C69.357 6.32846 68.4154 5.99233 67.8151 5.8203ZM24.7772 13.1464C24.3271 13.5413 23.8597 13.8915 24.3396 13.6218C24.3402 13.6213 24.3408 13.6208 24.3415 13.6204C23.148 14.5346 23.0185 14.4785 22.7634 14.68C21.8848 15.4005 22.7851 14.8028 22.2543 15.2773C23.5213 14.2151 23.1945 14.5652 24.1989 13.8108C24.4232 13.6409 25.3168 12.9513 25.4402 12.8386C25.5612 12.7235 25.0436 12.9907 24.7772 13.1464ZM73.029 7.61531C71.8167 7.09635 70.6482 6.77153 72.3506 7.4373C73.1752 7.772 73.7652 7.93784 73.029 7.61531ZM14.6731 85.1178C14.5677 84.9444 14.4596 84.7659 14.3472 84.5797C14.6491 84.9607 14.9567 85.3373 15.2694 85.709C15.0199 85.4171 14.7734 85.1219 14.5288 84.8217C15.0862 85.5436 15.3168 85.895 14.6746 85.1197C14.6741 85.119 14.6736 85.1184 14.6731 85.1178ZM41.4474 102.583C41.8358 102.71 42.6365 102.823 42.5385 102.793C41.8013 102.577 40.9065 102.406 41.4474 102.583ZM12.5629 25.5892C11.7033 26.8456 12.3818 26.0397 12.9217 25.2816C12.5769 25.7361 13.0598 24.8825 12.5629 25.5892ZM30.7912 98.4795C30.6752 98.407 30.5586 98.3337 30.4288 98.2526C30.8458 98.4908 30.9163 98.5363 30.7912 98.4795ZM67.245 5.54949C67.0232 5.47129 65.3609 5.04888 65.1292 5.01625C64.6546 4.93419 65.9458 5.29052 66.7099 5.47418C66.7953 5.49292 67.4658 5.61904 67.2415 5.54854C67.2426 5.54886 67.2438 5.54917 67.245 5.54949ZM15.9468 86.7328C15.9459 86.73 15.9477 86.7303 15.9516 86.7333C15.9497 86.7327 15.9491 86.7338 15.9468 86.7328ZM74.8947 99.787C74.8854 99.7892 74.8801 99.7896 74.8804 99.7875C74.8844 99.7876 74.8918 99.7862 74.8947 99.787ZM55.2891 3.69725C54.7195 3.56313 53.3883 3.62512 54.4374 3.68597C54.4962 3.68846 55.1505 3.69235 55.2891 3.69725Z" fill="white"/>
<path d="M14.4008 18.0371C23.4571 7.80665 37.9132 0.948457 51.6411 0.561244C53.3151 0.501161 53.2051 0.555098 53.6768 0.551577C53.7881 0.551971 53.8957 0.552342 54 0.552686C55.1058 0.558135 55.8265 0.548945 56.6792 0.592108C61.2384 0.838004 65.4737 1.59478 69.7456 2.91604C74.1189 4.37499 72.0054 3.80744 73.4977 4.38054C76.364 5.60812 73.9633 4.46994 75.1084 4.9175C78.3989 6.34231 81.5674 8.12392 84.5019 10.1902C83.7751 9.6988 83.0389 9.22647 82.2821 8.76609C83.6081 9.59577 85.4289 10.893 83.2446 9.45471C83.7215 9.78034 84.1615 10.0936 84.6414 10.4433C84.8131 10.482 87.0301 12.136 87.235 12.2855C87.4533 12.4171 86.2233 11.4629 86.2292 11.4708C86.3907 11.4352 91.2066 15.634 91.4648 16.0307C92.3179 16.8984 91.5231 16.1847 92.25 16.92C93.4765 18.2059 92.7784 17.244 94.2515 19.1543C94.9154 19.8458 94.9517 19.9263 95.7076 20.8732C95.8065 20.9985 95.754 20.8821 95.7982 20.9366C96.945 22.3712 96.0329 21.2919 96.0365 21.3016C96.1038 21.4608 97.3001 23.0222 97.5267 23.3703C100.428 27.6853 102.192 31.1031 104.058 36.2502C104.482 37.3541 105.515 40.8192 105.731 41.9407C105.973 43.0454 105.801 42.462 105.908 43.0446C106.186 43.951 106.392 44.8426 106.619 46.9553C106.784 47.7312 106.731 47.6412 106.89 49.1474C107.025 50.4025 107.211 52.5992 107.132 54C107.125 52.3971 107.101 52.5683 106.989 50.7766C107.042 50.1683 106.213 43.997 106.155 44.4762C106.173 44.7179 106.523 46.7508 106.518 46.8305C106.539 47.2927 106.349 46.1676 106.193 45.1556C106.243 45.4048 106.3 45.7068 106.348 45.9759C106.025 43.7048 106.109 45.2905 105.948 43.554C105.925 43.3396 105.963 43.418 105.911 43.0648C105.887 42.995 105.955 43.4258 105.875 43.0594C105.794 42.6856 105.673 41.9697 105.614 41.8728C105.532 41.7257 105.895 43.2647 105.91 43.3835C105.91 43.3847 105.911 43.3858 105.911 43.387C106.094 44.4201 105.652 42.2717 105.614 42.1726C105.429 41.5196 105.516 41.9729 105.247 40.9949C105.096 40.4352 104.705 39.0087 104.536 38.4931C104.372 37.9787 104.597 38.7882 104.485 38.4427C104.373 38.097 104.252 37.6576 104.111 37.2543C104.051 37.0816 104.028 37.0991 103.999 37.0156C103.68 36.1227 103.938 36.691 103.644 35.8832C103.458 35.3549 102.717 33.6364 103.177 34.8408C102.946 34.2649 102.715 33.71 102.466 33.1444C102.613 33.5058 102.762 33.8767 102.896 34.2316C102.471 33.1557 102.211 32.6922 101.908 32.0341C101.602 31.3769 101.368 30.7654 100.981 30.0648C100.16 28.5696 102.086 32.3267 102.248 32.8299C102.327 33.0182 101.97 32.3183 101.918 32.21C101.691 31.7242 101.446 31.1406 101.261 30.7693C100.598 29.4452 100.131 28.6683 99.416 27.4542C97.0056 23.3012 93.2099 18.6577 89.8527 15.5972C88.6128 14.4479 87.8561 13.7655 87.2689 13.2836C85.884 12.1714 85.6817 12.0749 84.4267 11.1698C82.5586 9.81901 79.7839 8.12006 78.0675 7.24774C76.8848 6.62982 75.7706 6.1676 75.4538 6.02735C71.0686 4.02048 65.3657 2.50262 61.4122 1.99406C59.5555 1.73752 58.6668 1.63931 58.2822 1.60544C56.6195 1.49045 57.0583 1.55768 55.7147 1.49952C54.9865 1.47566 54.8493 1.44218 54.7516 1.43858C54.4233 1.42962 54.1945 1.43289 54 1.4395C53.6837 1.45067 53.4591 1.46991 53.0431 1.47793C49.188 1.55826 45.4777 1.99689 41.7599 2.8762C41.4906 2.9404 41.5097 2.91501 41.3359 2.95883C40.5916 3.15164 40.9449 3.09289 40.1666 3.30345C38.5522 3.74819 36.9123 4.27237 35.2517 4.90241C35.0872 4.96517 35.0034 4.96819 34.629 5.11616C34.2543 5.26548 33.9811 5.40192 33.3983 5.6481C31.8754 6.29481 30.3904 6.97657 28.8522 7.81305C28.5972 7.95194 28.2982 8.15375 27.921 8.36939C26.7341 9.03842 25.0143 10.1015 24.0572 10.7739C20.8888 12.9748 18.2054 15.3425 15.7137 17.9838C15.1285 18.6051 14.605 19.1518 14.3129 19.4867C13.6584 20.2451 14.1687 19.6871 13.5167 20.4645C8.22405 26.8374 4.42583 34.5021 2.6401 42.6978C1.91691 45.9117 1.49427 49.9133 1.45172 53.0933C1.44449 53.4683 1.4394 53.7573 1.43443 54C1.42321 54.6146 1.40731 54.9294 1.42581 55.6001C1.48717 57.2598 1.55408 57.5752 1.72131 59.3177C1.86437 60.7205 2.04167 62.3169 2.31651 63.7559C2.59595 65.1862 2.78563 65.8433 3.21073 67.4626C3.56353 68.8004 4.11693 70.6514 4.64197 72.0593C9.40152 85.0156 19.283 95.7682 31.8572 101.648C36.284 103.743 41.5356 105.318 46.5463 106.058C47.0167 106.126 46.2868 106.084 47.8035 106.262C48.6248 106.35 49.7568 106.44 51.6534 106.525C52.4279 106.558 53.2103 106.575 54 106.575C64.5756 106.647 75.7209 103.218 84.395 96.9745C98.7087 87.0855 106.5 69.3066 106.758 54.4089C106.784 53.672 106.9 54.0714 106.929 54.5147C106.901 54.925 106.866 55.3028 106.826 55.7287C106.945 56.2714 106.939 56.1732 106.785 58.1709C106.675 59.3949 106.82 58.4223 106.778 59.0761C106.764 59.9324 106.219 63.8983 106.235 63.1208C106.209 63.368 106.184 63.596 106.155 63.8362C105.635 66.6871 104.911 69.4147 103.971 72.0924C103.808 72.5537 103.828 72.5867 103.652 73.062C103.173 74.3358 102.732 75.324 102.141 76.5941C101.817 77.2809 101.803 77.3948 101.349 78.283C100.885 79.1663 100.861 79.1264 100.237 80.3377C100.741 79.6038 98.7066 83 97.8748 84.1361C97.7636 84.3076 96.8385 85.7044 96.2842 86.4037C95.7361 87.1104 94.8615 88.1469 93.961 89.1948C93.5387 89.6858 93.3048 90.0049 92.8279 90.5169C92.492 90.8764 92.0556 91.2763 91.6139 91.7146C91.1759 92.1563 90.2173 93.1027 90.033 93.2674C89.3758 93.8688 90.0858 93.189 89.6336 93.5969C87.4511 95.5688 84.7073 97.6188 82.2551 99.1638C81.9538 99.3546 82.3882 99.1187 82.3486 99.1444C80.3047 100.444 81.3835 99.7298 80.8098 100.043C80.2758 100.388 76.1544 102.497 76.1254 102.518C75.9699 102.519 75.0487 102.982 74.801 103.086C73.8443 103.494 74.0124 103.364 73.0788 103.747C72.735 103.886 73.4226 103.663 73.0503 103.805C72.1258 104.154 71.2784 104.394 70.0264 104.784C69.7231 104.878 69.6356 104.935 69.0971 105.094C68.5619 105.266 66.2676 105.819 67.3353 105.605C65.9415 105.906 65.6615 106.002 64.0327 106.322C63.6191 106.4 63.0793 106.456 62.193 106.608C61.8938 106.658 61.9103 106.7 61.4591 106.764C60.4277 106.908 59.4391 106.979 58.1241 107.08C56.7824 107.181 55.4088 107.243 54 107.25C52.8031 107.255 51.6213 107.22 50.4308 107.136C49.7304 107.083 49.907 107.058 48.8946 106.965C48.7495 106.954 47.5156 106.862 46.8198 106.76C46.4013 106.714 44.2299 106.332 43.8006 106.234C43.0854 106.09 42.9459 106.1 42.5548 106.007C41.4265 105.727 42.347 105.883 40.972 105.634C40.5393 105.479 39.7468 105.269 39.5121 105.141C39.0371 105.072 38.4676 104.845 37.582 104.58C36.699 104.316 35.9482 104.172 35.7836 103.973C35.37 103.849 33.6535 103.2 33.3718 103.075C32.5301 102.722 32.9924 102.882 32.3606 102.609C32.25 102.56 32.3538 102.638 31.6487 102.311C31.1723 102.127 27.8552 100.397 27.678 100.256C25.4955 98.9426 28.8888 100.938 29.4031 101.14C29.4859 101.191 29.5679 101.241 29.6569 101.295C30.6546 101.816 30.1073 101.477 29.6604 101.233C29.213 100.99 28.3647 100.559 28.0049 100.333C27.8259 100.221 27.971 100.23 28.5255 100.544C27.9381 100.197 28.7643 100.628 28.5374 100.48C28.2751 100.339 25.6533 98.7674 25.6296 98.772C26.1114 99.0801 26.7196 99.4502 27.2172 99.7432C27.8427 100.178 25.7222 99.2289 24.0284 97.9528C22.8115 97.0178 24.8816 98.4638 21.9283 96.3662C22.3713 96.705 22.7472 96.9881 23.1577 97.2847C23.1731 97.3558 22.5369 96.8334 22.1902 96.5906C22.0219 96.4756 23.0092 97.2502 22.1279 96.6099C21.4213 95.9898 20.805 95.6096 19.6015 94.5967C19.9427 94.87 20.2874 95.1394 20.6347 95.4039C18.6138 93.6866 23.387 97.5749 19.4277 94.2764C19.8995 94.6788 20.3741 95.0732 20.8626 95.4598C20.6429 95.2513 21.0658 95.4956 20.865 95.3146C20.3386 94.8412 19.5202 94.1878 18.8783 93.6112C18.5974 93.3591 18.7856 93.4998 18.7619 93.4787C18.3789 93.1318 18.444 93.2299 18.1084 92.9245C17.6817 92.5442 16.5219 91.3717 16.3363 91.1796C15.8453 90.6924 16.6124 91.5536 16.5639 91.5082C16.2299 91.2177 15.621 90.5516 15.6281 90.6104C17.0952 92.215 21.8033 96.3473 17.5435 92.6113C18.6526 93.7134 18.2456 93.4923 16.6231 91.9277C15.3034 90.6119 16.1738 91.442 15.5247 90.7215C15.4307 90.6373 13.7692 88.7796 13.6774 88.6899C13.786 88.7277 13.2999 88.0781 13.6982 88.4522C13.7548 88.5085 14.4241 89.2777 14.226 88.9781C14.1262 88.829 13.8333 88.4086 13.9107 88.4505C13.758 88.3061 13.5978 88.1551 13.444 88.0068C12.4641 86.8372 12.358 86.644 11.8813 85.9592C11.8912 85.9992 12.3011 86.6569 11.6109 85.7103C11.5763 85.6611 11.5633 85.606 11.2227 85.1191C10.5401 84.1303 10.4099 83.9169 11.0002 84.6269C9.54428 82.6141 9.32196 82.1161 8.02676 79.9283C8.19885 80.4122 8.63636 81.1978 9.93153 83.1388C9.96851 83.2357 9.97609 83.2877 10.0151 83.3874C8.36738 80.7517 9.19647 82.0443 8.24887 80.5602C8.01017 80.2 6.93021 78.1696 7.23735 78.8754C7.30405 79.044 8.00217 80.2945 7.90323 80.1616C7.87771 80.1396 7.03229 78.6184 6.9736 78.4765C6.19095 76.7173 7.6831 79.8084 5.43755 75.0188C5.37894 74.8852 5.33265 74.8492 5.21771 74.5878C5.00399 74.0973 5.03166 74.0786 4.8461 73.6378C4.66158 73.197 4.38033 72.5903 4.17513 71.8999C3.80204 70.6375 4.87423 73.5482 5.40712 74.8205C5.53312 75.3676 2.37698 66.0291 2.46651 65.3743C1.87667 62.7698 2.82171 67.1114 2.8919 67.3264C2.90692 67.4203 2.74895 67.415 3.14089 68.4744C3.25615 68.7873 2.91835 67.4386 3.15445 68.2337C3.39479 69.0271 3.26646 68.7222 3.27965 68.781C3.3258 68.9829 3.59695 69.8188 3.62807 69.9308C4.09471 71.6337 3.89176 71.5279 3.3879 69.2369C3.05185 68.2771 3.65829 70.5303 3.26104 69.3307C2.7807 67.8682 2.58319 66.7526 2.53967 66.5668C2.05483 64.2993 2.53111 66.9329 1.98135 64.1516C1.70523 62.601 2.47655 66.4562 1.81512 62.9205C1.34544 59.9428 1.57106 61.5554 1.4588 61.3496C1.43486 61.3009 1.18869 59.6661 1.50552 61.8939C1.53415 61.9538 1.57721 62.0678 1.61706 62.2072C1.68597 62.7575 1.75159 63.6824 1.80466 63.9709C2.06387 65.3789 2.10976 65.3043 2.23851 66.1423C2.16575 65.5383 2.34786 66.5066 2.45241 66.86C2.85052 68.1707 2.37427 66.4411 3.16069 69.414C3.07404 69.0221 3.00179 68.6659 2.92677 68.2841C3.02689 68.6389 3.1307 68.9925 3.23798 69.3443C3.32492 69.8893 3.95061 71.7546 3.3345 70.0838C3.97131 72.1265 4.32227 72.9177 4.53601 73.3369C4.5777 73.4161 4.69843 73.7133 4.84175 74.0613C4.82843 73.9898 4.83641 73.8884 4.86387 73.9412C5.10665 74.4133 5.35563 75.2019 5.21488 74.957C5.31774 75.2001 5.40051 75.3918 5.42961 75.4596C5.61438 75.8889 5.21692 75.0626 5.36077 75.4134C5.40443 75.5311 5.95955 76.7246 5.96307 76.7508C5.97889 76.9203 5.02978 74.967 6.95649 78.8764C7.05967 78.9408 6.13097 77.1448 6.43233 77.5748C6.74763 78.0397 7.18216 79.0922 7.38824 79.2623C7.41823 79.351 7.42611 79.3932 7.44837 79.4716C8.34042 80.988 8.30039 81.0368 8.55885 81.5087C9.0384 82.4433 11.7574 86.3986 9.40771 82.7872C9.75549 83.312 10.1168 83.8434 10.481 84.3536C10.4558 84.5457 10.2313 84.2376 12.045 86.6561C12.4516 87.1831 12.5383 87.3927 13.0116 87.8488C12.8919 87.8328 14.206 89.3033 14.3287 89.4397C15.0583 90.3735 12.1185 87.1108 11.9154 86.555C11.4241 85.9997 11.4783 85.961 10.9829 85.3017C10.2765 84.3424 10.1654 84.2132 9.42822 83.0061C8.56398 81.9057 12.5149 87.5063 10.0505 84.1586C7.01303 81.572 -0.566472 62.2083 0.548373 54C0.546501 53.2 0.562311 52.5298 0.579764 52.0154C1.17999 41.7836 2.88224 36.3884 7.1137 28.2252C7.45121 27.3639 11.2803 21.6535 10.5643 22.8973C10.4429 23.0635 8.80877 25.5192 10.2902 23.4682C9.96307 23.8673 10.7999 22.6374 10.8746 22.5374C12.5425 20.2102 11.4351 21.4423 14.4008 18.0371ZM24.9398 9.94922C20.1634 13.2657 23.6919 10.8565 22.7795 11.6527C23.378 11.2112 23.9839 10.7836 24.6013 10.3672C24.4349 10.4703 24.2711 10.5729 24.1058 10.6778C24.1051 10.6783 24.1044 10.6788 24.1037 10.6792C24.379 10.4336 24.6592 10.1892 24.9398 9.94922ZM103.458 35.8045C103.365 35.597 103.271 35.3928 103.168 35.1693C102.898 34.4506 102.615 33.7453 102.314 33.0382C102.36 33.1178 102.405 33.1947 102.452 33.2747C102.808 34.1089 103.142 34.9482 103.458 35.8045ZM5.75061 75.56C6.16184 76.5704 6.18512 76.4481 6.79649 77.7618C6.7694 77.5768 6.73346 77.3749 6.70387 77.1818C6.21676 76.1974 6.09064 75.9825 5.62467 74.8826C5.66239 75.0178 5.70188 75.1559 5.73933 75.288C5.82344 75.4683 5.91432 75.6595 5.99741 75.8331C6.07226 76.1366 5.28954 74.3925 5.74895 75.5566C5.7495 75.5577 5.75005 75.5589 5.75061 75.56ZM11.3697 85.1764C11.6974 85.6614 13.1111 87.5039 13.342 87.7236C14.055 88.5235 9.98461 83.4091 13.0119 87.1569C13.0071 87.1324 13.0298 87.1424 13.0388 87.1351C12.4898 86.4508 11.9579 85.7541 11.4396 85.0391C11.4305 85.1044 11.3752 85.1058 11.3697 85.1764ZM10.1249 24.685C9.57753 25.4029 7.45836 29.1289 8.20656 27.9473C8.41548 27.5947 9.33619 25.9181 9.74392 25.3148C10.0037 24.9225 9.74593 25.3838 10.2481 24.6034C10.2102 24.6273 10.1793 24.6371 10.1236 24.6871C10.124 24.6864 10.1245 24.6857 10.1249 24.685ZM10.89 23.1591C10.3519 23.9225 9.8286 24.7115 9.32931 25.5073C9.73371 24.9522 10.4689 23.8221 10.5712 23.7964C10.4285 24.01 10.289 24.2221 10.1494 24.4377C10.0276 24.5923 9.90823 24.745 9.78971 24.8984C9.38142 25.5937 9.65168 25.1868 8.85183 26.4558C9.4215 25.7405 9.51603 25.6079 10.8999 23.4466C10.6679 23.8751 11.0599 23.5957 11.8047 22.3847C11.9441 22.1574 11.2705 23.038 11.2622 23.0478C11.124 23.1585 11.4631 22.6434 11.3198 22.7654C11.2542 22.8194 10.8577 23.3698 10.7775 23.4374C10.7387 23.4676 11.0836 22.92 10.89 23.1591ZM12.1869 21.8093C12.0341 22.0545 12.6828 21.314 13.2136 20.6478C14.0452 19.6099 12.6536 21.1811 12.1869 21.8093ZM103.46 35.8092C103.46 35.8076 103.459 35.8061 103.458 35.8045C103.459 35.8053 103.459 35.806 103.459 35.8068C103.46 35.8076 103.46 35.8084 103.46 35.8092ZM9.68322 82.6737C10.0756 83.2404 10.6523 84.0819 10.6414 83.9979C10.8261 84.2775 11.0158 84.5583 11.2058 84.8343C11.2132 84.825 11.2188 84.8132 11.2261 84.804C10.6424 83.9827 10.0839 83.1473 9.54848 82.2945C9.59066 82.4174 9.62802 82.5324 9.68322 82.6737ZM16.5545 91.2309C17.4514 92.1283 16.733 91.3421 16.9482 91.5205C17.161 91.7006 17.9638 92.4938 17.8931 92.3754C17.3513 91.8636 16.7976 91.3179 16.2718 90.7765C16.3828 90.9461 16.4522 91.073 16.5563 91.2327C16.5557 91.2321 16.5551 91.2315 16.5545 91.2309ZM46.9807 1.73688C46.1293 1.84634 46.4705 1.74083 44.8006 2.06897C44.8018 2.06874 44.8031 2.06853 44.8043 2.06831C46.4041 1.81496 48.4669 1.58261 50.2385 1.43131C49.1488 1.4694 48.3246 1.57912 46.9807 1.73688ZM4.7086 72.7358C4.54697 72.4085 5.13459 73.9958 5.31209 74.3247C5.5864 74.8623 4.94194 73.2399 4.7086 72.7358ZM80.5636 8.12375C81.7428 8.71675 79.6734 7.30196 77.2946 6.20151C77.092 6.10164 78.5869 6.88766 78.1315 6.67938C78.0867 6.65645 77.2589 6.23991 77.0453 6.15432C76.8332 6.06729 77.0365 6.1988 76.6927 6.04953C76.0927 5.78387 74.7451 5.1446 74.2778 4.98922C74.2168 4.96653 75.0497 5.36364 75.1015 5.39013C75.9604 5.78947 76.8041 6.13349 76.936 6.19683C77.6152 6.52371 77.4925 6.51469 77.6589 6.60799C77.972 6.78442 78.5406 7.05864 78.579 7.0811C79.5716 7.6437 77.2677 6.42586 76.935 6.3011C76.0595 5.93791 76.8491 6.31976 74.7608 5.42652C74.5621 5.34137 72.1856 4.34812 75.1605 5.65137C69.2339 3.30926 78.111 6.89463 78.958 7.54073C79.3841 7.75934 78.7655 7.37904 79.0298 7.50083C79.6366 7.77636 80.6229 8.33742 80.5641 8.23656C80.4392 8.01641 79.0991 7.34852 78.1931 6.86577C78.3014 6.89125 78.3502 6.88665 78.5399 6.95591C78.2557 6.83441 80.4853 8.06897 80.5635 8.12396C80.5635 8.12389 80.5636 8.12382 80.5636 8.12375ZM65.4857 2.38996C64.0843 2.05142 64.1764 2.15175 62.8876 1.87863C61.7314 1.75598 63.9891 2.1309 64.2444 2.19755C65.43 2.4563 65.3901 2.52529 66.6004 2.79009C66.1976 2.64492 65.869 2.52155 65.4857 2.38996ZM77.2231 6.53576C76.3428 6.15045 77.8867 6.9037 77.9421 6.9473C78.5938 7.33365 73.97 5.11004 77.2231 6.53576ZM7.13198 29.4034C6.90363 29.8347 7.07999 29.5774 6.89319 29.965C6.70166 30.3509 6.03425 31.6652 6.07514 31.6432C6.10589 31.6156 7.33916 29.218 6.17605 31.6596C6.22691 31.5824 6.22281 31.6145 6.25247 31.5797C6.56808 30.9094 6.9034 30.2355 7.24774 29.5785C7.02486 29.9217 6.79941 30.2764 6.59212 30.6125C6.75049 30.2238 6.89315 30.0325 6.90302 30.0127C6.90298 30.0127 6.90295 30.0127 6.90291 30.0126C7.25354 29.3176 7.65302 28.4403 7.13198 29.4034ZM35.331 4.5951C35.4329 4.45306 34.3965 4.96414 33.968 5.15705C33.5375 5.34531 32.9283 5.57116 33.1682 5.51217C33.8762 5.23041 35.3172 4.60729 35.3309 4.59499C35.3309 4.59503 35.3309 4.59507 35.331 4.5951ZM57.7777 1.27178C56.572 1.21843 56.7649 1.24764 55.297 1.17408C55.3535 1.19842 55.4098 1.22336 55.4661 1.24753C56.6304 1.28727 56.5504 1.213 57.9006 1.32999C58.1209 1.3519 57.6455 1.3648 58.641 1.42998C58.3545 1.37646 58.0632 1.32184 57.7777 1.27178ZM51.8169 1.26841C53.1912 1.21829 54.2862 1.00757 51.7457 1.16567C51.3705 1.19456 50.7856 1.31821 51.8169 1.26841ZM14.3611 18.9317C12.8158 20.7055 14.5807 18.6977 15.0245 18.275C11.4378 22.406 15.3967 17.7767 15.8832 17.4865C16.3237 16.9849 17.1661 16.0571 16.1756 17.0327C15.7662 17.4437 15.9348 17.3121 15.9102 17.3369C15.1695 18.1056 15.2204 17.9771 14.3611 18.9317ZM67.9075 2.98247C67.8214 2.96064 67.9472 3.02759 67.6729 2.96057C67.3978 2.89244 66.7854 2.71427 66.7193 2.71904C66.6533 2.72014 67.8905 3.05298 68.2716 3.14965C68.6529 3.24302 68.6845 3.18366 67.9075 2.98247ZM59.0531 1.29302C57.8846 1.20953 59.7795 1.50029 60.0351 1.53692C62.2645 1.80034 58.9829 1.30535 59.0531 1.29302ZM18.0497 14.8865C16.026 16.889 17.5879 15.504 18.9564 14.3741C19.1235 14.2092 19.2964 14.0414 19.4636 13.8808C18.7171 14.6472 17.3442 15.9063 20.4533 13.1603C18.7018 14.607 20.1427 13.3652 20.1524 13.3533C20.2396 13.0666 17.7518 15.3467 18.0515 14.8848C18.0509 14.8853 18.0503 14.8859 18.0497 14.8865ZM71.5407 4.14945C72.7127 4.5317 75.6725 5.75764 74.3186 5.12235C73.4025 4.77237 72.4729 4.44676 71.5407 4.14945ZM0.947436 56.6328C0.963198 57.6499 1.03012 58.5793 1.16597 59.8203C1.10138 58.6957 1.18135 59.4292 1.23481 59.8064C1.31525 60.3766 1.16578 58.9907 1.17315 58.9883C1.22821 59.008 1.30128 59.8907 1.1371 57.883C1.19013 58.3794 1.24952 58.8669 1.31588 59.3584C1.17252 57.8361 1.19063 57.4654 1.17889 56.4927C1.13365 57.4382 1.11644 56.1996 1.04883 55.0702C1.01298 54.5056 0.933406 56.1209 0.947621 56.6366C0.947561 56.6353 0.947497 56.634 0.947436 56.6328ZM15.9266 16.9229C15.7344 17.1448 15.5657 17.3544 15.3857 17.5737C15.1752 17.7994 14.9662 18.0273 14.7597 18.2566C14.7228 18.2746 14.6896 18.2875 14.6488 18.3107C14.3727 18.6095 14.4949 18.5062 14.4156 18.5974C14.4155 18.5974 14.4155 18.5973 14.4154 18.5973C13.2863 19.9133 12.8397 20.4637 11.9652 21.5049C12.002 21.5334 12.0387 21.5618 12.0754 21.5902C12.2584 21.3466 12.4456 21.1021 12.6329 20.8618C12.7147 20.7198 12.7977 20.5777 12.881 20.4363C13.1149 20.1719 13.3496 19.9117 13.5887 19.6519C13.7649 19.4307 13.9803 19.1677 14.1355 18.9782C15.1607 18.006 12.9905 20.3566 13.0301 20.4271C13.0287 20.4494 15.1352 18.0196 15.4558 17.6835C15.4998 17.6332 14.9489 18.0707 15.7981 17.2519C15.934 17.126 16.1187 17.2183 16.9006 16.206C17.0136 16.0625 16.4682 16.4096 15.9266 16.9229ZM8.67203 26.114C9.69957 24.6144 6.21572 30.3394 7.74588 27.8825C7.39679 28.6324 7.46944 28.4961 7.9246 27.8012C7.96445 27.7399 7.69765 28.2469 7.7238 28.2058C8.12624 27.5427 8.59202 26.7357 8.64266 26.7588C8.74782 26.5785 8.84825 26.4088 8.95577 26.2292C8.45576 26.9462 9.14887 25.7432 9.40777 25.2708C9.52389 25.0545 9.21405 25.524 9.31099 25.3416C9.34574 25.273 9.78687 24.6229 9.7909 24.5869C9.79478 24.5091 9.47076 24.8863 8.99605 25.579C8.99601 25.579 8.99598 25.5789 8.99594 25.5789C8.88572 25.7581 8.78011 25.9333 8.67203 26.114ZM38.8495 3.09236C39.1678 3.07908 40.3516 2.7398 38.095 3.46032C38.2117 3.43889 38.3311 3.41692 38.4472 3.39654C38.8278 3.27839 39.1983 3.16782 39.5887 3.05634C40.7061 2.50213 42.9346 2.24825 41.5107 2.42261C41.3551 2.44157 40.4398 2.6904 41.3374 2.4198C41.3362 2.42006 41.3349 2.42032 41.3337 2.42059C40.0686 2.75171 39.9127 2.8256 38.8495 3.09236ZM30.7086 6.32448C28.06 7.77391 34.5192 4.63704 33.4312 5.1356C33.319 5.15443 30.524 6.47782 30.7086 6.32448ZM54.1268 0.815905C54.0833 0.815718 54.041 0.815674 54 0.815761C52.7569 0.823303 52.682 0.916534 52.8143 0.940252C52.947 0.964821 53.8327 0.926851 54 0.931374C54.0055 0.931457 54.0101 0.931574 54.014 0.931726C54.2155 0.939986 54.0973 0.94638 54 0.953766C53.9184 0.960012 53.8515 0.966863 54 0.975359C54.0228 0.97668 54.0506 0.978056 54.0843 0.97952C54.2581 0.97374 56.6119 1.06694 56.7158 1.08117C57.3179 1.09258 56.4433 0.977597 56.6158 0.978813C57.1774 0.978596 57.9362 1.06815 58.1002 1.04462C58.4558 0.990735 57.0332 0.971964 56.792 0.966078C56.0726 0.934816 56.1377 0.894752 55.5974 0.868111C55.0571 0.843831 54.7023 0.853785 54.2228 0.848197C54.0631 0.846607 54.196 0.816382 54.1268 0.815905ZM49.6531 1.16874C51.0571 0.987793 47.6208 1.20902 47.2159 1.30438C46.0277 1.49873 48.9857 1.23021 49.6531 1.16874ZM11.385 22.4668C12.1185 21.4005 10.2907 23.7976 9.84602 24.5396C9.94363 24.4122 11.1252 22.8264 11.385 22.4668ZM18.6349 14.3566C17.7618 15.1655 18.9947 14.1763 19.7527 13.5388C20.1539 13.1126 19.7411 13.472 19.249 13.8948C18.7593 14.3192 19.3231 13.7328 18.6349 14.3566ZM68.6422 2.93577C68.4018 2.82851 64.3697 1.91835 66.673 2.49417C66.8495 2.51882 69.6456 3.28594 69.8496 3.35991C70.2772 3.47215 69.2785 3.11792 68.6422 2.93577ZM23.0318 10.7062C22.5527 11.1218 22.0573 11.4931 22.5634 11.2038C22.5641 11.2033 22.5648 11.2028 22.5655 11.2023C21.2998 12.1703 21.1677 12.1176 20.8972 12.3309C19.9657 13.094 20.9161 12.4559 20.3522 12.9573C21.6963 11.8328 21.3474 12.2007 22.4119 11.4009C22.6496 11.2207 23.5982 10.4918 23.7299 10.3736C23.859 10.2529 23.313 10.5398 23.0318 10.7062ZM74.1679 4.83906C72.8826 4.29033 71.6461 3.94065 73.4508 4.64549C74.3251 4.99985 74.9485 5.18014 74.1679 4.83906ZM12.3204 86.9794C12.2075 86.7966 12.0918 86.6082 11.9715 86.4118C12.2912 86.8158 12.617 87.2153 12.948 87.6094C12.684 87.2998 12.4231 86.9866 12.1642 86.6681C12.7554 87.433 13.0019 87.8036 12.322 86.9814C12.3214 86.9807 12.3209 86.9801 12.3204 86.9794ZM40.6967 105.488C41.1087 105.621 41.9562 105.745 41.8523 105.714C41.0703 105.488 40.1229 105.303 40.6967 105.488ZM10.0884 23.8926C9.17803 25.2243 9.89093 24.3663 10.4628 23.5625C10.0984 24.0451 10.6147 23.1434 10.0884 23.8926ZM29.4031 101.14C29.2799 101.063 29.156 100.986 29.0182 100.901C29.4606 101.153 29.5355 101.2 29.4031 101.14ZM68.0363 2.65495C67.8011 2.57261 66.0394 2.12542 65.7941 2.09017C65.2914 2.00179 66.6607 2.37552 67.4702 2.57137C67.5607 2.59136 68.2704 2.72812 68.0326 2.65394C68.0338 2.65428 68.035 2.65461 68.0363 2.65495ZM13.6724 88.6891C13.6714 88.6862 13.6732 88.6867 13.6774 88.6899C13.6753 88.6892 13.6748 88.6903 13.6724 88.6891ZM76.1405 102.517C76.1307 102.519 76.1251 102.52 76.1254 102.518C76.1296 102.518 76.1374 102.516 76.1405 102.517ZM55.366 0.698211C54.7623 0.563005 53.3518 0.625014 54.4634 0.686076C54.5258 0.68854 55.2191 0.693038 55.366 0.698211Z" fill="white"/>
<path d="M30.5109 29.2982L28.0899 31.301L21.5999 23.4556L24.1282 21.3641C24.8893 20.7346 25.6704 20.3529 26.4717 20.2192C27.2709 20.0829 28.0566 20.1878 28.829 20.5339C29.5993 20.8774 30.3203 21.4552 30.9921 22.2674C31.6681 23.0846 32.1046 23.9086 32.3015 24.7394C32.4962 25.5676 32.4462 26.3703 32.1514 27.1475C31.8546 27.9222 31.3077 28.6391 30.5109 29.2982ZM28.3427 29.6723L29.7525 28.5062C30.4011 27.9696 30.8352 27.3997 31.0547 26.7966C31.2741 26.1936 31.2974 25.5743 31.1244 24.9388C30.9514 24.3033 30.6009 23.6664 30.0727 23.0279C29.5488 22.3945 28.9943 21.9349 28.4093 21.6488C27.8222 21.3603 27.2216 21.2635 26.6076 21.3584C25.9915 21.4508 25.377 21.7506 24.7641 22.2576L23.2471 23.5125L28.3427 29.6723ZM39.6246 23.2643C38.9872 23.5268 38.3654 23.6055 37.7593 23.5003C37.1562 23.3938 36.6075 23.1233 36.1131 22.6889C35.6218 22.2532 35.226 21.6707 34.9255 20.9413C34.6226 20.2058 34.4914 19.5089 34.5321 18.8505C34.5758 18.1909 34.7743 17.6109 35.1274 17.1106C35.4836 16.609 35.9804 16.2269 36.6178 15.9644C37.2552 15.7018 37.8755 15.6238 38.4785 15.7302C39.0846 15.8355 39.634 16.1074 40.1265 16.5462C40.6222 16.9837 41.0215 17.5702 41.3244 18.3057C41.6249 19.035 41.7526 19.728 41.7076 20.3846C41.6656 21.0399 41.4666 21.6184 41.1104 22.1199C40.7573 22.6203 40.262 23.0017 39.6246 23.2643ZM39.2232 22.2897C39.7074 22.0903 40.0547 21.802 40.265 21.4251C40.4754 21.0481 40.5723 20.6264 40.5558 20.16C40.5394 19.6936 40.434 19.2245 40.2396 18.7525C40.0452 18.2806 39.7889 17.8717 39.4709 17.526C39.1528 17.1802 38.7858 16.9461 38.3697 16.8236C37.9536 16.701 37.5034 16.7395 37.0192 16.9389C36.535 17.1383 36.1884 17.4281 35.9793 17.8081C35.7702 18.1882 35.6745 18.6129 35.6922 19.0824C35.71 19.5518 35.816 20.0225 36.0104 20.4945C36.2048 20.9664 36.4604 21.3737 36.7772 21.7164C37.094 22.0591 37.4598 22.2902 37.8746 22.4097C38.2895 22.5291 38.739 22.4892 39.2232 22.2897ZM48.8082 20.4873C48.0973 20.5718 47.4651 20.4767 46.9118 20.2021C46.3584 19.9274 45.9085 19.512 45.562 18.9557C45.2155 18.3995 44.9972 17.7429 44.9072 16.9859C44.8156 16.2157 44.8763 15.5193 45.0893 14.8965C45.3052 14.27 45.6485 13.7603 46.1191 13.3672C46.5926 12.9704 47.1716 12.7314 47.8562 12.65C48.3894 12.5866 48.8816 12.6281 49.333 12.7747C49.7843 12.9213 50.1677 13.1561 50.4831 13.4791C50.7986 13.8021 51.0174 14.1966 51.1396 14.6627L49.9745 14.8012C49.8445 14.4662 49.6106 14.1836 49.2729 13.9534C48.938 13.7196 48.5138 13.6332 48.0004 13.6942C47.5462 13.7482 47.1621 13.9141 46.848 14.1917C46.5367 14.4657 46.3111 14.828 46.1711 15.2785C46.034 15.7254 45.9995 16.2352 46.0676 16.8078C46.1373 17.3937 46.2901 17.8929 46.526 18.3054C46.7653 18.7175 47.0687 19.0236 47.4363 19.2235C47.8071 19.4231 48.2229 19.4954 48.6837 19.4407C48.9865 19.4047 49.2551 19.3193 49.4894 19.1846C49.7237 19.05 49.9147 18.8737 50.0623 18.6559C50.21 18.4381 50.3036 18.1866 50.3431 17.9016L51.5082 17.763C51.4956 18.2184 51.3806 18.641 51.1633 19.0307C50.9489 19.4166 50.6419 19.7402 50.2424 20.0013C49.8457 20.2587 49.3677 20.4207 48.8082 20.4873ZM59.2019 12.4682L59.093 13.4566L55.1594 13.0231L55.2683 12.0347L59.2019 12.4682ZM56.6152 10.3425L57.7814 10.4711L56.9842 17.7057C56.9479 18.0351 56.9684 18.2875 57.0458 18.4627C57.1268 18.635 57.24 18.7576 57.3854 18.8303C57.5344 18.9 57.6946 18.9444 57.8659 18.9632C57.9944 18.9774 58.1006 18.9824 58.1844 18.9783C58.2685 18.9709 58.3359 18.965 58.3864 18.9606L58.5081 20.0344C58.4258 20.0553 58.3122 20.0728 58.1672 20.0868C58.022 20.1042 57.8406 20.1008 57.6232 20.0769C57.2937 20.0406 56.9787 19.9342 56.678 19.7576C56.3806 19.5815 56.1442 19.337 55.9686 19.0242C55.7963 18.7118 55.7344 18.3349 55.7831 17.8934L56.6152 10.3425ZM64.4307 21.731C63.7827 21.4955 63.2702 21.1347 62.8932 20.6486C62.5193 20.1636 62.2961 19.5941 62.2234 18.94C62.1539 18.287 62.2539 17.5898 62.5233 16.8485C62.795 16.1008 63.1676 15.4975 63.6412 15.0383C64.118 14.5803 64.6554 14.2855 65.2534 14.1536C65.8545 14.023 66.4791 14.0754 67.127 14.3108C67.775 14.5463 68.2859 14.9065 68.6598 15.3915C69.0368 15.8776 69.2595 16.4487 69.3279 17.1048C69.3994 17.762 69.2993 18.4644 69.0276 19.212C68.7582 19.9534 68.3857 20.5516 67.9101 21.0064C67.4376 21.4624 66.9007 21.7558 66.2996 21.8864C65.7016 22.0182 65.0786 21.9664 64.4307 21.731ZM64.7906 20.7404C65.2828 20.9192 65.7336 20.9402 66.143 20.8034C66.5525 20.6665 66.9082 20.4202 67.2103 20.0645C67.5123 19.7088 67.7505 19.291 67.9249 18.8113C68.0992 18.3316 68.1853 17.8568 68.1832 17.3871C68.1811 16.9173 68.0676 16.4969 67.8427 16.126C67.6178 15.7551 67.2592 15.4803 66.7671 15.3014C66.2749 15.1226 65.8235 15.1031 65.4129 15.2431C65.0024 15.3831 64.6455 15.6325 64.3423 15.9913C64.0391 16.3502 63.8003 16.7694 63.626 17.2492C63.4517 17.7289 63.3661 18.2021 63.3694 18.6688C63.3726 19.1354 63.4872 19.5526 63.7133 19.9204C63.9393 20.2882 64.2984 20.5615 64.7906 20.7404ZM70.8163 23.9986L75.0522 17.6448L75.9953 18.2735L75.3555 19.2332L75.4217 19.2773C75.7471 19.0402 76.1268 18.9248 76.5607 18.9312C76.9945 18.9377 77.4018 19.0678 77.7823 19.3215C77.854 19.3693 77.9427 19.4304 78.0485 19.5049C78.1542 19.5793 78.2328 19.6377 78.2842 19.68L77.6224 20.6728C77.5948 20.6424 77.5272 20.5795 77.4197 20.4839C77.3167 20.3873 77.2004 20.2959 77.0708 20.2095C76.762 20.0036 76.443 19.8845 76.1139 19.8523C75.7894 19.8192 75.4815 19.8689 75.1901 20.0012C74.9032 20.1327 74.6642 20.3418 74.473 20.6286L71.7925 24.6494L70.8163 23.9986ZM84.5942 27.5696L83.6353 27.0401C83.7118 26.8686 83.7624 26.6785 83.7871 26.4698C83.8165 26.2611 83.792 26.0409 83.7135 25.8093C83.6349 25.5776 83.4744 25.3417 83.2318 25.1016C82.8997 24.7728 82.5471 24.5753 82.1742 24.5093C81.8059 24.4432 81.5063 24.5267 81.2754 24.7599C81.0703 24.9672 80.9836 25.2055 81.0154 25.4748C81.0472 25.7442 81.1837 26.0775 81.4247 26.4747L82.0344 27.47C82.403 28.0681 82.5862 28.6062 82.5839 29.0844C82.584 29.5601 82.3963 29.9876 82.0209 30.3668C81.7131 30.6778 81.3484 30.8671 80.9269 30.9348C80.5077 31.0049 80.0692 30.9532 79.6113 30.7797C79.1534 30.6063 78.7137 30.3109 78.2921 29.8935C77.7385 29.3455 77.3993 28.7718 77.2744 28.1725C77.1495 27.5731 77.2673 26.9948 77.6278 26.4376L78.6151 27.0232C78.4013 27.3899 78.327 27.75 78.392 28.1036C78.4594 28.4595 78.6639 28.8065 79.0054 29.1446C79.3941 29.5293 79.7843 29.7524 80.176 29.8137C80.5723 29.8749 80.886 29.789 81.1168 29.5558C81.3034 29.3674 81.3936 29.1443 81.3876 28.8865C81.384 28.6264 81.277 28.3293 81.0668 27.9952L80.3721 26.8878C79.9917 26.278 79.8074 25.734 79.819 25.2559C79.8354 24.7777 80.0289 24.3513 80.3997 23.9768C80.7028 23.6706 81.0569 23.4849 81.462 23.4195C81.8695 23.3565 82.2893 23.406 82.7213 23.5679C83.1557 23.7321 83.5637 24.0031 83.9453 24.3808C84.4823 24.9125 84.7874 25.4476 84.8604 25.9863C84.9358 26.5273 84.847 27.0551 84.5942 27.5696ZM89.8906 27.2353L89.1888 27.7905C88.9757 27.9592 88.7174 28.1001 88.414 28.2134C88.1152 28.3272 87.7941 28.3995 87.4508 28.4303C87.1121 28.4616 86.7773 28.4391 86.4464 28.3628L86.4571 27.5429C86.8206 27.5216 87.1757 27.4709 87.5224 27.391C87.8738 27.3116 88.1937 27.1578 88.4822 26.9295L89.1996 26.3619L89.8906 27.2353Z" fill="white"/>
<path d="M88.2566 51.2875L88.1061 48.149L98.2763 47.6615L98.4334 50.939C98.4807 51.9255 98.3175 52.7795 97.944 53.5009C97.5737 54.2221 97.0185 54.7879 96.2783 55.1983C95.5414 55.6086 94.6466 55.839 93.5938 55.8895C92.5345 55.9403 91.6133 55.7953 90.8305 55.4545C90.051 55.1136 89.4387 54.5922 88.9935 53.8901C88.5517 53.1879 88.3061 52.3204 88.2566 51.2875ZM89.2576 49.3282L89.3453 51.1557C89.3856 51.9965 89.5812 52.6857 89.9321 53.223C90.2831 53.7603 90.7647 54.1503 91.3769 54.3931C91.9891 54.6358 92.7091 54.7373 93.5367 54.6977C94.3577 54.6583 95.0581 54.4903 95.6379 54.1938C96.2209 53.897 96.6586 53.4746 96.9508 52.9263C97.2464 52.3779 97.3752 51.7064 97.3371 50.9119L97.2428 48.9454L89.2576 49.3282ZM88.5436 59.5726L96.0459 60.9971L95.827 62.1498L88.3247 60.7253L88.5436 59.5726ZM97.185 61.8207C97.2277 61.596 97.341 61.4168 97.5249 61.283C97.7083 61.1525 97.9074 61.1077 98.1223 61.1485C98.3372 61.1893 98.506 61.304 98.6288 61.4926C98.7509 61.6845 98.7907 61.8928 98.748 62.1174C98.7053 62.3421 98.5923 62.5197 98.409 62.6502C98.225 62.784 98.0256 62.8304 97.8107 62.7896C97.5958 62.7488 97.4273 62.6325 97.3051 62.4406C97.1824 62.252 97.1423 62.0453 97.185 61.8207ZM83.5089 66.0858C83.7329 65.5652 83.9925 65.1465 84.2876 64.8297C84.5797 64.5116 84.8875 64.2742 85.2111 64.1176C85.5303 63.9627 85.8432 63.8646 86.1496 63.8233L86.3829 64.9412C86.2131 64.9836 86.0139 65.044 85.7854 65.1224C85.5537 65.1996 85.3213 65.3413 85.0882 65.5477C84.8507 65.7558 84.6409 66.0714 84.4587 66.4946C84.215 67.0608 84.1509 67.5871 84.2664 68.0734C84.3818 68.5597 84.7318 68.9286 85.3164 69.1802L86.7412 69.7934L86.7805 69.7021C86.6867 69.5679 86.5768 69.3871 86.451 69.1597C86.3268 68.9367 86.25 68.6583 86.2205 68.3245C86.1927 67.995 86.2771 67.6019 86.4736 67.1452C86.7173 66.579 87.0701 66.1282 87.5319 65.7929C87.9924 65.4607 88.5347 65.2737 89.1589 65.232C89.7817 65.1934 90.4584 65.3312 91.1891 65.6457C91.9076 65.9549 92.4788 66.3505 92.9029 66.8325C93.3299 67.3158 93.5927 67.8456 93.691 68.4219C93.7924 68.9996 93.716 69.5838 93.4618 70.1744C93.2653 70.631 93.0333 70.9606 92.7657 71.163C92.5 71.3697 92.2404 71.5034 91.987 71.5639C91.7354 71.6288 91.5316 71.6746 91.3758 71.7014L91.3286 71.811L92.4429 72.2905L91.9948 73.3317L84.7795 70.2265C84.1767 69.9671 83.7455 69.6191 83.4859 69.1827C83.222 68.7479 83.1006 68.2627 83.1219 67.727C83.1388 67.193 83.2678 66.646 83.5089 66.0858ZM87.3788 67.708C87.1928 68.1403 87.1345 68.5482 87.204 68.9317C87.2735 69.3153 87.4605 69.6646 87.7651 69.9797C88.0697 70.2948 88.4808 70.5637 88.9983 70.7865C89.5037 71.004 89.9825 71.1198 90.4346 71.134C90.8868 71.1482 91.2867 71.0532 91.6343 70.8492C91.9819 70.6452 92.25 70.324 92.4387 69.8856C92.6352 69.4289 92.6833 68.9986 92.5829 68.5946C92.4813 68.1936 92.2684 67.8331 91.9442 67.5132C91.6187 67.1963 91.2185 66.9357 90.7436 66.7313C90.2565 66.5217 89.7929 66.4124 89.3529 66.4034C88.9147 66.3989 88.5242 66.5014 88.1813 66.7111C87.8403 66.9251 87.5728 67.2574 87.3788 67.708ZM83.3868 73.7334L89.5731 78.2105L88.8852 79.161L82.6989 74.6839L83.3868 73.7334ZM90.2544 79.44C90.3884 79.2547 90.5672 79.1406 90.7905 79.0977C91.0119 79.0574 91.2112 79.1014 91.3884 79.2297C91.5657 79.3579 91.6697 79.5335 91.7007 79.7564C91.7298 79.982 91.6772 80.1874 91.5432 80.3727C91.4091 80.5579 91.2313 80.6707 91.0099 80.7109C90.7866 80.7539 90.5863 80.7112 90.4091 80.5829C90.2319 80.4547 90.1287 80.2778 90.0997 80.0522C90.0687 79.8293 90.1203 79.6252 90.2544 79.44ZM83.1755 85.6907L82.4827 84.9774L85.3217 82.2203L86.0144 82.9336L83.1755 85.6907ZM86.4616 85.0496L85.6199 85.8671L80.5491 80.6457C80.3182 80.408 80.1106 80.2631 79.9262 80.2112C79.7417 80.164 79.5751 80.1732 79.4265 80.239C79.2778 80.3095 79.1416 80.4048 79.018 80.5249C78.9253 80.6149 78.8538 80.6936 78.8036 80.7608C78.7557 80.8304 78.7174 80.8861 78.6886 80.9279L77.7832 80.3381C77.8194 80.2612 77.8783 80.1625 77.9598 80.0418C78.0389 79.9187 78.157 79.781 78.3139 79.6286C78.5516 79.3977 78.8343 79.2225 79.1619 79.1031C79.487 78.986 79.8261 78.9593 80.1791 79.023C80.5297 79.0891 80.8597 79.2814 81.1691 79.6L86.4616 85.0496ZM73.3493 83.4752C73.7644 83.2264 74.1879 83.0788 74.6199 83.0323C75.0536 82.9887 75.4594 83.0564 75.8374 83.2356C76.217 83.4176 76.5347 83.7218 76.7903 84.1482C77.0153 84.5234 77.1237 84.8719 77.1157 85.1936C77.1093 85.5182 77.0225 85.8214 76.8553 86.1033C76.6881 86.3852 76.4749 86.6483 76.2156 86.8926C75.9552 87.1415 75.6849 87.377 75.4046 87.5992C75.0373 87.8889 74.7377 88.1208 74.5057 88.2946C74.2726 88.473 74.1188 88.629 74.0443 88.7626C73.9669 88.8978 73.9768 89.0465 74.074 89.2085L74.0944 89.2426C74.3467 89.6633 74.6578 89.9212 75.0278 90.0162C75.395 90.113 75.8102 90.0224 76.2736 89.7446C76.754 89.4566 77.0675 89.1256 77.2143 88.7516C77.3611 88.3777 77.4183 88.0381 77.386 87.7328L78.5457 87.5013C78.6137 88.0015 78.5721 88.4477 78.4207 88.8398C78.2683 89.2365 78.0493 89.5804 77.7639 89.8713C77.4773 90.1668 77.1692 90.4134 76.8394 90.6111C76.6291 90.7372 76.3721 90.8565 76.0685 90.9689C75.7638 91.0859 75.4375 91.1444 75.0897 91.1443C74.739 91.1459 74.3854 91.0429 74.0291 90.8353C73.6728 90.6277 73.3387 90.2638 73.0268 89.7436L70.4396 85.4285L71.4459 84.8252L71.9776 85.7121L72.0288 85.6814C72.0118 85.4984 72.0343 85.2781 72.0964 85.0207C72.1584 84.7632 72.2875 84.4983 72.4837 84.2261C72.6799 83.9539 72.9684 83.7036 73.3493 83.4752ZM73.7378 84.4712C73.3399 84.7098 73.0513 84.9891 72.8722 85.3091C72.6902 85.6307 72.6037 85.957 72.6126 86.2878C72.6188 86.6203 72.7037 86.923 72.8673 87.1959L73.4195 88.1169C73.4315 88.0402 73.4971 87.9371 73.6166 87.8075C73.7348 87.6825 73.8784 87.5481 74.0473 87.4043C74.215 87.2651 74.3801 87.1313 74.5428 87.0029C74.7042 86.8791 74.8347 86.7776 74.9342 86.6987C75.1753 86.5077 75.3865 86.3057 75.5679 86.0926C75.7481 85.8841 75.8628 85.6627 75.9117 85.4286C75.9595 85.1989 75.9067 84.9562 75.7534 84.7004C75.5437 84.3507 75.2559 84.1639 74.8898 84.1399C74.5226 84.1205 74.1386 84.2309 73.7378 84.4712ZM69.4681 97.3235L65.8652 87.8005L66.9626 87.3853L70.5655 96.9083L69.4681 97.3235Z" fill="white"/>
<path d="M46.7877 88.6414L49.8034 89.5238L46.9441 99.2959L43.7949 98.3744C42.847 98.0971 42.0931 97.6641 41.5332 97.0755C40.9723 96.4901 40.6188 95.7806 40.4724 94.947C40.3252 94.1165 40.3996 93.1955 40.6955 92.184C40.9934 91.166 41.4311 90.3427 42.0087 89.714C42.5854 89.0885 43.2782 88.6799 44.0871 88.4884C44.895 88.3 45.7953 88.351 46.7877 88.6414ZM48.3129 90.2273L46.5569 89.7135C45.749 89.4771 45.0337 89.437 44.4113 89.5933C43.7889 89.7497 43.263 90.0775 42.8337 90.577C42.4044 91.0764 42.0734 91.7238 41.8407 92.519C41.6099 93.3079 41.54 94.0248 41.6311 94.6696C41.7212 95.3175 41.9776 95.8691 42.4004 96.3244C42.8223 96.7828 43.415 97.1237 44.1784 97.347L46.0679 97.8999L48.3129 90.2273ZM35.9205 84.1933C36.4858 84.588 36.8878 85.0688 37.1266 85.6357C37.3627 86.2007 37.4315 86.8086 37.3329 87.4593C37.2316 88.1081 36.9551 88.7559 36.5035 89.4026C36.0482 90.0549 35.5325 90.5416 34.9564 90.863C34.3776 91.1825 33.7823 91.3287 33.1706 91.3018C32.5561 91.2729 31.9662 91.0612 31.4009 90.6665C30.8357 90.2719 30.435 89.792 30.1989 89.227C29.9601 88.6601 29.8923 88.0508 29.9955 87.3993C30.096 86.7459 30.3739 86.0931 30.8293 85.4409C31.2809 84.7941 31.7951 84.3123 32.372 83.9956C32.9461 83.6769 33.5405 83.532 34.155 83.5609C34.7668 83.5878 35.3553 83.7987 35.9205 84.1933ZM35.3172 85.0575C34.8878 84.7577 34.4577 84.6211 34.0268 84.6477C33.5959 84.6743 33.1886 84.8204 32.805 85.0862C32.4214 85.3519 32.0835 85.6941 31.7913 86.1126C31.4991 86.5311 31.2934 86.9675 31.1742 87.4219C31.055 87.8763 31.0562 88.3117 31.1778 88.7281C31.2994 89.1445 31.5749 89.5026 32.0043 89.8023C32.4337 90.1021 32.8648 90.2374 33.2975 90.2081C33.7303 90.1788 34.1395 90.0299 34.525 89.7614C34.9105 89.493 35.2493 89.1495 35.5415 88.731C35.8337 88.3125 36.0385 87.8774 36.1558 87.4257C36.2731 86.974 36.27 86.5413 36.1465 86.1277C36.023 85.714 35.7465 85.3573 35.3172 85.0575ZM29.9815 80.1678L23.7294 84.5524L23.0785 83.6243L24.0554 82.9392L23.9983 82.8578C23.5732 82.9616 23.1666 82.9331 22.7784 82.7721C22.3876 82.6131 22.0494 82.33 21.764 81.923C21.4747 81.5105 21.3276 81.1016 21.3226 80.6962C21.313 80.29 21.4209 79.8925 21.6462 79.5038L21.6005 79.4386C21.1653 79.505 20.7405 79.4447 20.326 79.2577C19.9088 79.0726 19.5431 78.7562 19.2291 78.3084C18.8371 77.7494 18.6915 77.1694 18.7923 76.5685C18.8903 75.9694 19.307 75.412 20.0424 74.8963L24.2268 71.9618L24.9005 72.9224L20.7161 75.8569C20.2548 76.1804 20.0135 76.5378 19.9924 76.9291C19.9713 77.3204 20.0807 77.687 20.3204 78.0289C20.6287 78.4685 21.0005 78.7158 21.4358 78.7708C21.8684 78.8278 22.2869 78.7144 22.6912 78.4309L26.7616 75.5764L27.4467 76.5533L23.1646 79.5562C22.8091 79.8055 22.6037 80.1216 22.5484 80.5045C22.4904 80.8893 22.5888 81.2635 22.8438 81.6272C23.0189 81.8768 23.2491 82.0636 23.5343 82.1874C23.8176 82.3085 24.1239 82.3528 24.4532 82.3202C24.7779 82.2868 25.0936 82.1626 25.4003 81.9475L29.3079 79.2072L29.9815 80.1678ZM21.5521 66.4162C21.6786 66.8832 21.7055 67.3309 21.6327 67.7593C21.5568 68.1885 21.3812 68.5606 21.1059 68.8756C20.8275 69.1914 20.4484 69.4143 19.9685 69.5443C19.5463 69.6588 19.1814 69.6684 18.874 69.5731C18.5634 69.4787 18.2953 69.3127 18.0695 69.0751C17.8437 68.8376 17.6485 68.5608 17.4839 68.2448C17.3153 67.9265 17.1622 67.6023 17.0246 67.2722C16.8457 66.8399 16.7041 66.4885 16.5999 66.218C16.4916 65.9452 16.3833 65.7547 16.2751 65.6467C16.166 65.5355 16.0202 65.5046 15.8379 65.554L15.7995 65.5644C15.3261 65.6927 14.9933 65.9219 14.8012 66.2521C14.6082 66.5791 14.5824 67.0034 14.7237 67.5248C14.8702 68.0654 15.1034 68.4572 15.4233 68.7002C15.7433 68.9432 16.0545 69.0906 16.3571 69.1425L16.2644 70.3214C15.7646 70.2509 15.3465 70.0894 15.0103 69.8371C14.67 69.5825 14.3987 69.2783 14.1964 68.9245C13.99 68.5684 13.8365 68.2047 13.736 67.8337C13.6718 67.5969 13.6269 67.3172 13.6013 66.9945C13.5716 66.6695 13.6041 66.3396 13.6988 66.0049C13.7927 65.6669 13.988 65.3548 14.2847 65.0683C14.5813 64.7819 15.0224 64.5594 15.6078 64.4007L20.4639 63.0848L20.7708 64.2173L19.7727 64.4877L19.7883 64.5453C19.9691 64.5787 20.1749 64.6603 20.4058 64.7901C20.6367 64.9198 20.8564 65.1161 21.065 65.3789C21.2736 65.6417 21.4359 65.9875 21.5521 66.4162ZM20.488 66.5191C20.3666 66.0712 20.1764 65.7176 19.9172 65.4581C19.6572 65.1955 19.3667 65.0235 19.046 64.9422C18.7243 64.8577 18.4099 64.857 18.1028 64.9402L17.0663 65.2211C17.1369 65.2535 17.2183 65.3447 17.3105 65.4949C17.3986 65.6427 17.4889 65.8174 17.5813 66.019C17.6696 66.2183 17.7535 66.4136 17.8328 66.605C17.9081 66.7941 17.9702 66.9472 18.0191 67.0645C18.1373 67.3484 18.2742 67.6066 18.4299 67.8391C18.5816 68.0693 18.7634 68.2398 18.9754 68.3506C19.1834 68.4591 19.4313 68.4743 19.7192 68.3963C20.1127 68.2897 20.3708 68.0635 20.4934 67.7178C20.612 67.3697 20.6102 66.9701 20.488 66.5191ZM19.3483 58.546L11.7157 58.7856L11.6789 57.6129L19.3115 57.3733L19.3483 58.546ZM10.4249 58.2293C10.4321 58.4578 10.3604 58.6574 10.2099 58.8279C10.0593 58.9951 9.8747 59.0822 9.65605 59.089C9.43741 59.0959 9.24769 59.0206 9.0869 58.8632C8.926 58.7024 8.84196 58.5078 8.83479 58.2792C8.82761 58.0506 8.89932 57.8527 9.04993 57.6855C9.20043 57.515 9.385 57.4263 9.60364 57.4194C9.82229 57.4125 10.0121 57.4895 10.173 57.6502C10.3338 57.8077 10.4177 58.0007 10.4249 58.2293ZM14.9186 50.5505L19.4541 51.2794L19.2679 52.4379L11.7283 51.2261L11.9082 50.1069L13.0863 50.2962L13.102 50.1981C12.7476 49.9598 12.4831 49.6421 12.3086 49.2447C12.1308 48.8469 12.0877 48.3633 12.1792 47.7939C12.2613 47.2834 12.4378 46.8536 12.7088 46.5043C12.9765 46.1546 13.3385 45.9073 13.7948 45.7625C14.2479 45.6171 14.7951 45.5959 15.4365 45.699L20.2273 46.469L20.0411 47.6275L15.3288 46.8701C14.7365 46.7749 14.2504 46.8545 13.8704 47.109C13.4872 47.363 13.2525 47.7583 13.1662 48.2949C13.1068 48.6647 13.1338 49.0081 13.2474 49.3251C13.3614 49.6389 13.5589 49.9039 13.8396 50.1202C14.1204 50.3366 14.4801 50.48 14.9186 50.5505Z" fill="white"/>
<path d="M87.5045 39.7348L85.0845 41.1962C85.0133 41.2313 84.9473 41.2455 84.8865 41.2388C84.826 41.2317 84.7671 41.2108 84.7098 41.1762C84.652 41.1406 84.6085 41.0904 84.5791 41.0255C84.5498 40.9606 84.5471 40.8897 84.5711 40.8128L85.2151 38.0728L83.0851 36.2262C83.0251 36.1773 82.9856 36.1188 82.9665 36.0508C82.9473 35.9828 82.9516 35.9177 82.9791 35.8555C83.0067 35.7933 83.0433 35.7422 83.0891 35.7022C83.1353 35.6635 83.1976 35.6373 83.2758 35.6235L86.0865 35.3782L87.1825 32.7835C87.2127 32.7102 87.2562 32.6573 87.3131 32.6248C87.37 32.5924 87.4338 32.5762 87.5045 32.5762C87.5751 32.5762 87.6391 32.5924 87.6965 32.6248C87.7538 32.6573 87.7971 32.7102 87.8265 32.7835L88.9225 35.3782L91.7325 35.6235C91.8111 35.6368 91.8736 35.6633 91.9198 35.7028C91.966 35.7419 92.0029 35.7928 92.0305 35.8555C92.0576 35.9177 92.0616 35.9828 92.0425 36.0508C92.0233 36.1188 91.9838 36.1773 91.9238 36.2262L89.7938 38.0728L90.4378 40.8128C90.4627 40.8888 90.4602 40.9595 90.4305 41.0248C90.4007 41.0902 90.3569 41.1404 90.2991 41.1755C90.2422 41.2111 90.1833 41.2322 90.1225 41.2388C90.062 41.2455 89.9962 41.2313 89.9251 41.1962L87.5045 39.7348Z" fill="white"/>
<path d="M19.5044 39.7348L17.0844 41.1962C17.0133 41.2313 16.9473 41.2455 16.8864 41.2388C16.8259 41.2317 16.7671 41.2108 16.7097 41.1762C16.6519 41.1406 16.6084 41.0904 16.5791 41.0255C16.5497 40.9606 16.5471 40.8897 16.5711 40.8128L17.2151 38.0728L15.0851 36.2262C15.0251 36.1773 14.9855 36.1188 14.9664 36.0508C14.9473 35.9828 14.9515 35.9177 14.9791 35.8555C15.0066 35.7933 15.0433 35.7422 15.0891 35.7022C15.1353 35.6635 15.1975 35.6373 15.2757 35.6235L18.0864 35.3782L19.1824 32.7835C19.2126 32.7102 19.2562 32.6573 19.3131 32.6248C19.3699 32.5924 19.4337 32.5762 19.5044 32.5762C19.5751 32.5762 19.6391 32.5924 19.6964 32.6248C19.7537 32.6573 19.7971 32.7102 19.8264 32.7835L20.9224 35.3782L23.7324 35.6235C23.8111 35.6368 23.8735 35.6633 23.9197 35.7028C23.9659 35.7419 24.0028 35.7928 24.0304 35.8555C24.0575 35.9177 24.0615 35.9828 24.0424 36.0508C24.0233 36.1188 23.9837 36.1773 23.9237 36.2262L21.7937 38.0728L22.4377 40.8128C22.4626 40.8888 22.4602 40.9595 22.4304 41.0248C22.4006 41.0902 22.3568 41.1404 22.2991 41.1755C22.2422 41.2111 22.1833 41.2322 22.1224 41.2388C22.0619 41.2455 21.9962 41.2313 21.9251 41.1962L19.5044 39.7348Z" fill="white"/>
<path d="M58.0001 97.2378L55.5801 98.6991C55.5089 98.7342 55.4429 98.7484 55.3821 98.7418C55.3216 98.7347 55.2627 98.7138 55.2054 98.6791C55.1476 98.6435 55.1041 98.5933 55.0747 98.5284C55.0454 98.4635 55.0427 98.3927 55.0667 98.3158L55.7107 95.5758L53.5807 93.7291C53.5207 93.6802 53.4812 93.6218 53.4621 93.5538C53.4429 93.4858 53.4472 93.4207 53.4747 93.3584C53.5023 93.2962 53.5389 93.2451 53.5847 93.2051C53.6309 93.1664 53.6932 93.1402 53.7714 93.1264L56.5821 92.8811L57.6781 90.2864C57.7083 90.2131 57.7518 90.1602 57.8087 90.1278C57.8656 90.0953 57.9294 90.0791 58.0001 90.0791C58.0707 90.0791 58.1347 90.0953 58.1921 90.1278C58.2494 90.1602 58.2927 90.2131 58.3221 90.2864L59.4181 92.8811L62.2281 93.1264C62.3067 93.1398 62.3692 93.1662 62.4154 93.2058C62.4616 93.2449 62.4985 93.2958 62.5261 93.3584C62.5532 93.4207 62.5572 93.4858 62.5381 93.5538C62.5189 93.6218 62.4794 93.6802 62.4194 93.7291L60.2894 95.5758L60.9334 98.3158C60.9583 98.3918 60.9558 98.4624 60.9261 98.5278C60.8963 98.5931 60.8525 98.6433 60.7947 98.6784C60.7378 98.714 60.6789 98.7351 60.6181 98.7418C60.5576 98.7484 60.4918 98.7342 60.4207 98.6991L58.0001 97.2378Z" fill="white"/>
<path d="M31.4274 33.5001C36.5874 27.6684 44.8293 23.7512 52.6555 23.5393C53.6098 23.5061 53.5472 23.5513 53.8159 23.5512C53.8793 23.5518 53.9406 23.5523 54 23.5527C54.6298 23.5574 55.0407 23.538 55.5267 23.5637C58.1243 23.7099 60.537 24.1435 62.969 24.9015C65.4585 25.7379 64.239 25.4568 65.0838 25.7929C66.705 26.5106 65.3627 25.8093 66.0195 26.0519C67.8918 26.8664 69.6927 27.8864 71.359 29.0676C70.9422 28.7924 70.5204 28.5282 70.0872 28.2706C70.841 28.7437 71.8708 29.4885 70.6206 28.6837C70.8893 28.8723 71.1366 29.0544 71.4068 29.2564C71.5165 29.2608 72.778 30.1998 72.9025 30.2749C73.0346 30.3399 72.333 29.7993 72.337 29.8029C72.4387 29.7702 75.1654 32.1761 75.3104 32.4026C75.7923 32.8994 75.3216 32.5122 75.7359 32.9289C76.4347 33.6573 76.0787 33.0752 76.862 34.2083C77.2569 34.5859 77.2684 34.6397 77.6966 35.1786C77.7526 35.2499 77.7333 35.1754 77.7588 35.2062C78.4186 36.0155 77.8801 35.4173 77.8812 35.4237C77.9012 35.5284 78.5886 36.4086 78.7155 36.6076C80.3402 39.0736 81.3228 41.0191 82.3744 43.9388C82.6134 44.5648 83.208 46.5266 83.3271 47.1635C83.46 47.7906 83.3465 47.4635 83.3991 47.7952C83.5962 48.3002 83.7171 48.8067 83.8199 50.0077C83.9426 50.4438 83.8891 50.3958 83.9851 51.249C84.0662 51.9595 84.2071 53.2051 84.1323 54C84.1307 53.091 84.103 53.1881 84.0308 52.1732C84.0581 51.8286 83.5875 48.3312 83.5251 48.6085C83.5199 48.7481 83.7324 49.8962 83.7264 49.9419C83.7219 50.2055 83.5939 49.5721 83.5129 48.9988C83.5445 49.1392 83.5798 49.3095 83.6108 49.4612C83.4486 48.1726 83.4168 49.0845 83.3948 48.0891C83.3903 47.9661 83.4205 48.0087 83.4001 47.8068C83.3832 47.7681 83.4121 48.0138 83.365 47.8068C83.3176 47.5956 83.2669 47.1863 83.2185 47.1348C83.151 47.0566 83.3647 47.9254 83.3718 47.9929C83.3723 47.9935 83.3727 47.9942 83.3732 47.9948C83.4649 48.5815 83.2139 47.3666 83.1902 47.311C83.0723 46.9449 83.111 47.2035 82.948 46.6537C82.8564 46.3391 82.6394 45.5325 82.542 45.2419C82.4476 44.952 82.5643 45.4122 82.4991 45.2178C82.434 45.0233 82.3732 44.7729 82.291 44.5459C82.2557 44.4488 82.2321 44.4624 82.2152 44.4154C82.0308 43.913 82.1995 44.2258 82.0322 43.7702C81.9258 43.4719 81.4867 42.5105 81.7401 43.1925C81.608 42.8685 81.4756 42.5562 81.3339 42.238C81.4137 42.4431 81.4955 42.6532 81.567 42.8548C81.3326 42.2461 81.1678 41.9926 80.9955 41.6225C80.8217 41.253 80.7113 40.8977 80.4828 40.508C79.9982 39.6768 81.0934 41.7884 81.1806 42.0737C81.2236 42.1805 81.0056 41.7939 80.9756 41.7332C80.846 41.4608 80.7203 41.1265 80.6156 40.9176C80.2399 40.1728 79.9615 39.7438 79.5561 39.0626C78.1892 36.7317 76.047 34.1271 74.157 32.4093C73.459 31.7643 73.0464 31.3653 72.7156 31.0946C71.9356 30.4699 71.8113 30.4295 71.1053 29.9214C70.0545 29.1633 68.5023 28.1951 67.5381 27.7014C66.8737 27.3517 66.2399 27.107 66.0618 27.0286C63.594 25.9059 60.3892 25.0526 58.1667 24.7669C57.1232 24.6228 56.6252 24.5487 56.4088 24.5302C55.4733 24.4679 55.7193 24.5218 54.964 24.4875C54.5547 24.4732 54.4777 24.4389 54.4228 24.4363C54.2382 24.4293 54.1094 24.4329 54 24.4395C53.8221 24.4505 53.6958 24.4693 53.462 24.4742C51.295 24.5232 49.2078 24.7565 47.1163 25.2492C46.9648 25.2851 46.9735 25.2622 46.8758 25.2873C46.4576 25.3978 46.6599 25.3785 46.2226 25.4978C45.3156 25.75 44.3931 26.0424 43.4588 26.3949C43.3663 26.4301 43.315 26.421 43.1044 26.5042C42.8937 26.5882 42.7441 26.6751 42.4163 26.8129C41.5595 27.175 40.7186 27.5467 39.8528 28.0167C39.7093 28.0947 39.5479 28.2204 39.3357 28.3415C38.6682 28.7172 37.6942 29.3045 37.1554 29.6824C35.3719 30.9196 33.8675 32.2575 32.4663 33.7431C32.1372 34.0925 31.8331 34.3915 31.6684 34.5798C31.2996 35.0061 31.596 34.7001 31.2293 35.1374C28.2526 38.722 26.1111 43.0309 25.1074 47.6418C24.7009 49.4501 24.4758 51.7019 24.4484 53.49C24.4439 53.701 24.4394 53.8635 24.4344 54C24.4227 54.3457 24.4051 54.523 24.4154 54.9005C24.4497 55.8347 24.5088 56.0108 24.605 56.9902C24.6871 57.7786 24.7655 58.6795 24.9215 59.4891C25.08 60.2937 25.2071 60.6588 25.4485 61.5682C25.6487 62.3196 25.9508 63.363 26.2475 64.1542C28.9377 71.4341 34.4924 77.4654 41.5526 80.7854C44.0392 81.9683 46.9909 82.851 49.8064 83.2875C50.0708 83.3273 49.6572 83.3237 50.5116 83.4201C50.9743 83.4673 51.613 83.5003 52.6798 83.5474C53.1155 83.5657 53.5557 83.5752 54 83.5752C59.9471 83.6165 66.2303 81.7174 71.1126 78.1952C79.176 72.5917 83.401 62.6063 83.7585 54.2307C83.7836 53.815 83.899 54.0401 83.9298 54.291C83.9041 54.523 83.8719 54.7363 83.8378 54.9764C83.968 55.2852 83.9484 55.2297 83.8556 56.3591C83.7897 57.0511 83.8984 56.5033 83.8825 56.874C83.8841 57.3591 83.6056 59.6115 83.5742 59.164C83.5665 59.3051 83.5591 59.4355 83.5498 59.5729C83.261 61.1893 82.8607 62.7378 82.3391 64.2603C82.2485 64.5227 82.2719 64.5459 82.1738 64.8164C81.9077 65.5413 81.6494 66.0988 81.3154 66.82C81.1318 67.2099 81.1376 67.2812 80.8787 67.785C80.6147 68.2861 80.5834 68.2535 80.2483 68.9518C80.5565 68.5476 79.3853 70.4672 78.9144 71.113C78.8515 71.2103 78.3445 72.0171 78.0274 72.413C77.7138 72.8131 77.2058 73.3925 76.7006 73.9931C76.4637 74.2746 76.3438 74.4678 76.0734 74.7596C75.8829 74.9646 75.6236 75.1809 75.3722 75.4294C75.1229 75.6798 74.5871 76.2271 74.4824 76.3209C74.1094 76.6634 74.5055 76.2688 74.2481 76.5002C73.0062 77.6189 71.4443 78.7784 70.055 79.6626C69.8843 79.7718 70.1381 79.6487 70.1158 79.6637C68.9621 80.4161 69.5666 79.9957 69.2346 80.1636C68.9255 80.3497 66.5875 81.5533 66.58 81.5858C66.4798 81.5608 65.9653 81.8436 65.8247 81.9036C65.282 82.1385 65.3683 82.042 64.8407 82.2667C64.6463 82.348 65.0431 82.2371 64.8313 82.3172C64.305 82.5143 63.8145 82.6256 63.1027 82.8449C62.9303 82.8972 62.8841 82.9413 62.578 83.0312C62.2736 83.1285 60.9665 83.4288 61.5794 83.3314C60.7824 83.483 60.6262 83.5478 59.7004 83.7292C59.4653 83.7732 59.1554 83.7864 58.6531 83.8784C58.4835 83.909 58.4955 83.9509 58.2391 83.9877C57.6529 84.0699 57.089 84.0912 56.3422 84.1476C55.5802 84.2041 54.8003 84.2434 54 84.2496C53.3202 84.2549 52.6486 84.2365 51.9724 84.1868C51.5746 84.1554 51.6764 84.1224 51.1016 84.0695C51.0194 84.0632 50.3169 84.027 49.9218 83.9678C49.6841 83.9406 48.4528 83.7123 48.2094 83.6557C47.8036 83.5725 47.7207 83.5959 47.4993 83.5397C46.8605 83.3709 47.3898 83.4336 46.6003 83.3273C46.3595 83.2199 45.9091 83.1025 45.7827 83.0066C45.5058 82.993 45.1899 82.8392 44.6849 82.6979C44.1813 82.5569 43.7369 82.5244 43.6628 82.3584C43.4258 82.2943 42.4469 81.937 42.2866 81.8665C41.8076 81.6684 42.0763 81.7447 41.7168 81.5918C41.6539 81.564 41.7085 81.6181 41.3085 81.4315C41.0383 81.3267 39.1552 80.3439 39.0553 80.2621C37.8248 79.5023 39.7479 80.6405 40.045 80.7445C40.0906 80.7762 40.1357 80.8076 40.1848 80.8407C40.7488 81.1406 40.4489 80.9269 40.1982 80.7834C39.9471 80.6406 39.4609 80.4057 39.2607 80.2708C39.1612 80.2036 39.2578 80.1835 39.5701 80.3648C39.2417 80.1601 39.7142 80.3958 39.5897 80.3051C39.4456 80.2168 37.9641 79.3256 37.942 79.3416C38.2144 79.5165 38.5589 79.7254 38.8402 79.8919C39.1813 80.1627 37.9292 79.7051 36.9875 78.9485C36.3125 78.3954 37.4995 79.198 35.8112 78.0271C36.0617 78.2201 36.2734 78.3827 36.5056 78.5519C36.5022 78.6092 36.1546 78.2942 35.9541 78.1619C35.8566 78.0991 36.4082 78.5506 35.905 78.1911C35.5219 77.8154 35.1542 77.6235 34.4704 77.0485C34.6675 77.1997 34.8666 77.3485 35.067 77.4945C33.9346 76.5039 36.645 78.7027 34.4086 76.8238C34.6765 77.0511 34.9453 77.2748 35.223 77.4927C35.1054 77.3661 35.3649 77.4794 35.2555 77.3717C34.969 77.09 34.4995 76.7289 34.1374 76.4016C33.979 76.2585 34.0912 76.3316 34.0779 76.3196C33.862 76.1228 33.8902 76.1877 33.6998 76.0155C33.4577 75.8011 32.8105 75.1292 32.7046 75.0216C32.4244 74.7486 32.8404 75.2534 32.8117 75.2291C32.6141 75.0733 32.2765 74.6891 32.2691 74.7334C33.1071 75.6339 35.7651 77.9854 33.3336 75.8878C33.9449 76.5313 33.6911 76.4328 32.7672 75.5457C32.0159 74.7999 32.5202 75.2614 32.163 74.8417C32.1109 74.7925 31.1737 73.7334 31.1133 73.6897C31.194 73.6945 30.9356 73.3118 31.1812 73.5068C31.2162 73.5362 31.5939 73.9726 31.4976 73.7891C31.449 73.6977 31.3009 73.445 31.3549 73.4599C31.2615 73.3845 31.163 73.306 31.0685 73.2284C30.5123 72.5688 30.4601 72.4531 30.2047 72.0556C30.2044 72.0825 30.4119 72.4731 30.029 71.9322C30.0099 71.904 30.0113 71.8662 29.8232 71.5878C29.4462 71.0225 29.3759 70.9005 29.7355 71.2825C28.8985 70.1568 28.8033 69.8562 28.0637 68.6276C28.1245 68.9211 28.381 69.3603 29.1189 70.4517C29.1315 70.5119 29.1276 70.5467 29.1414 70.6086C28.229 69.107 28.696 69.8393 28.1432 69.0107C28.004 68.8097 27.3982 67.6594 27.5471 68.0716C27.579 68.17 27.9747 68.8772 27.9097 68.8072C27.8936 68.7957 27.4106 67.937 27.3797 67.8554C26.9664 66.8451 27.8308 68.5827 26.5506 65.8806C26.5172 65.8052 26.4799 65.7897 26.4134 65.6425C26.2896 65.3663 26.3182 65.3504 26.2103 65.1024C26.103 64.8546 25.9262 64.5179 25.8266 64.1215C25.6458 63.3977 26.2683 65.035 26.5537 65.7598C26.6625 66.051 24.8838 60.7849 24.9307 60.4162C24.5828 58.95 25.1247 61.3975 25.1532 61.5219C25.1569 61.5759 25.008 61.589 25.2681 62.1771C25.3446 62.3504 25.169 61.5849 25.3086 62.0319C25.4505 62.4778 25.3606 62.3108 25.3669 62.3443C25.3887 62.4596 25.5483 62.9295 25.5634 62.9935C25.7897 63.9675 25.6188 63.926 25.4173 62.6049C25.2085 62.068 25.5213 63.3512 25.2838 62.6765C24.9963 61.8532 24.9116 61.2144 24.8883 61.1092C24.6286 59.8231 24.8581 61.3222 24.5597 59.7454C24.4107 58.8668 24.8666 61.0435 24.4899 59.0445C24.2221 57.361 24.3355 58.2747 24.2398 58.1629C24.2188 58.1364 24.07 57.2112 24.2529 58.4732C24.2775 58.5059 24.3128 58.5688 24.3431 58.6466C24.376 58.9588 24.3716 59.4903 24.4003 59.6544C24.5404 60.4544 24.5878 60.4072 24.6357 60.8883C24.6219 60.5394 24.7086 61.0923 24.7737 61.2913C25.0207 62.029 24.7584 61.0458 25.1771 62.7388C25.1406 62.5128 25.1122 62.3073 25.0824 62.0876C25.1395 62.2884 25.1988 62.4885 25.2599 62.6875C25.2812 63.0044 25.6396 64.0612 25.2623 63.1228C25.6156 64.2841 25.8208 64.7312 25.9631 64.9605C25.9907 65.0038 26.0608 65.1715 26.1424 65.3686C26.1407 65.3257 26.1635 65.2608 26.1813 65.2898C26.3384 65.5489 26.4455 66.0096 26.3529 65.8766C26.4106 66.0146 26.4568 66.1236 26.473 66.1621C26.5757 66.4064 26.3388 65.9431 26.4164 66.1437C26.4399 66.2111 26.7572 66.8868 26.7545 66.9038C26.7338 67.0143 26.2163 65.895 27.2929 68.1227C27.3779 68.145 26.8453 67.1295 27.0448 67.3591C27.2541 67.607 27.4594 68.2245 27.6132 68.3009C27.6241 68.3544 27.6235 68.3811 27.6292 68.4293C28.1504 69.2792 28.0974 69.3243 28.2373 69.596C28.4965 70.134 30.04 72.3753 28.7333 70.3113C28.9329 70.607 29.1388 70.9073 29.3473 71.1948C29.2815 71.3397 29.1746 71.1505 30.1958 72.5283C30.4248 72.8285 30.4527 72.965 30.7466 73.203C30.6539 73.2144 31.4148 74.0368 31.4814 74.1166C31.8775 74.6646 30.1791 72.8322 30.1085 72.4816C29.812 72.1798 29.866 72.14 29.5818 71.7682C29.1763 71.227 29.1082 71.1564 28.7079 70.4595C28.1915 69.851 30.4498 73.0228 29.0167 71.144C27.261 69.6978 22.9217 58.6775 23.5484 54C23.5465 53.5443 23.5548 53.1625 23.5642 52.8694C23.8951 47.0398 24.8589 43.9596 27.2728 39.307C27.4653 38.8161 29.6458 35.5592 29.2659 36.2887C29.2007 36.3866 28.2821 37.791 29.1474 36.64C28.948 36.8578 29.4155 36.152 29.4566 36.094C30.3751 34.7459 29.7373 35.4411 31.4274 33.5001ZM37.6066 29.15C34.9074 31.0144 36.9117 29.6745 36.429 30.1666C36.7659 29.9182 37.107 29.6776 37.4546 29.4434C37.359 29.4986 37.2649 29.5536 37.1699 29.6099C37.1696 29.6102 37.1692 29.6105 37.1688 29.6107C37.3124 29.4561 37.4592 29.3019 37.6066 29.15ZM81.8669 43.7479C81.8076 43.6334 81.7481 43.5209 81.6839 43.3976C81.5339 42.9921 81.3766 42.5942 81.2087 42.1951C81.2393 42.238 81.2692 42.2794 81.2997 42.3226C81.5005 42.7927 81.6882 43.2656 81.8669 43.7479ZM26.7547 66.1744C26.9692 66.7532 27.0139 66.6692 27.3448 67.4179C27.3525 67.3019 27.3548 67.1768 27.3611 67.0567C27.0833 66.504 27.0033 66.3869 26.7465 65.7647C26.7602 65.8441 26.7748 65.9253 26.7883 66.0031C26.8373 66.1041 26.8904 66.211 26.9387 66.3083C26.9599 66.4892 26.5149 65.5063 26.7537 66.1725C26.7541 66.1731 26.7544 66.1737 26.7547 66.1744ZM29.936 71.5984C30.1182 71.874 30.9067 72.9223 31.0453 73.0396C31.4752 73.4675 29.1617 70.5976 30.8942 72.6911C30.8954 72.6741 30.9121 72.6766 30.9211 72.6693C30.6132 72.2827 30.3147 71.8892 30.0239 71.4856C30.0025 71.5342 29.9554 71.5466 29.936 71.5984ZM29.2509 37.4641C28.9396 37.8679 27.7593 39.9777 28.2011 39.3227C28.3245 39.1276 28.8152 38.1659 29.0465 37.8262C29.1937 37.6055 29.0635 37.8754 29.341 37.4319C29.313 37.441 29.2883 37.4416 29.2502 37.4653C29.2505 37.4649 29.2507 37.4645 29.2509 37.4641ZM29.5975 36.5424C29.2955 36.9764 29.0026 37.4252 28.723 37.8773C28.9689 37.5743 29.3738 36.9279 29.4552 36.9298C29.3764 37.0518 29.2993 37.1729 29.2223 37.2959C29.1482 37.3797 29.0755 37.4626 29.0033 37.5459C28.7855 37.9475 28.9449 37.7216 28.4891 38.4362C28.8482 38.0546 28.92 37.9943 29.6649 36.7491C29.5535 37.0044 29.8371 36.8919 30.2123 36.1769C30.2827 36.0426 29.8973 36.5351 29.8913 36.5397C29.7969 36.5904 29.978 36.2919 29.8816 36.3496C29.8376 36.375 29.6136 36.6861 29.5585 36.7175C29.5318 36.7312 29.7134 36.4117 29.5975 36.5424ZM30.4124 35.8407C30.3361 35.9864 30.7247 35.5869 31.019 35.2079C31.4807 34.6171 30.6749 35.4852 30.4124 35.8407ZM81.868 43.7505C81.8676 43.7497 81.8673 43.7488 81.8669 43.7479C81.8671 43.7483 81.8674 43.7487 81.8676 43.7492C81.8677 43.7496 81.8678 43.7501 81.868 43.7505ZM28.9959 70.178C29.2261 70.492 29.55 70.9674 29.5575 70.9106C29.6589 71.07 29.7632 71.2302 29.8678 71.3878C29.876 71.3796 29.8832 71.37 29.8913 71.362C29.5648 70.8973 29.2526 70.4247 28.9536 69.9425C28.9662 70.0189 28.976 70.091 28.9959 70.178ZM32.8646 75.0143C33.3697 75.522 32.98 75.0622 33.1091 75.1551C33.2368 75.2489 33.6832 75.7024 33.654 75.6243C33.3491 75.3355 33.0375 75.0275 32.7417 74.7221C32.7921 74.8295 32.8188 74.9132 32.8656 75.0153C32.8653 75.0149 32.865 75.0146 32.8646 75.0143ZM50.0425 24.5349C49.5619 24.5917 49.7514 24.5153 48.813 24.7202C48.8137 24.7201 48.8144 24.7199 48.8151 24.7198C49.7197 24.5908 50.8827 24.4725 51.88 24.3736C51.2643 24.377 50.801 24.4535 50.0425 24.5349ZM26.2137 64.5616C26.1098 64.3818 26.4307 65.2814 26.5425 65.462C26.716 65.757 26.3645 64.8383 26.2137 64.5616ZM69.0367 28.0311C69.7261 28.3313 68.5758 27.4884 67.2162 26.8816C67.1006 26.8266 67.9425 27.2842 67.6805 27.1733C67.6548 27.161 67.1859 26.924 67.0623 26.8807C66.9396 26.8366 67.0489 26.9233 66.8517 26.8438C66.5079 26.7024 65.7521 26.3236 65.4823 26.2476C65.4472 26.2363 65.9116 26.4778 65.9406 26.4934C66.4221 26.7293 66.9094 26.9025 66.9842 26.9383C67.3691 27.1226 67.2914 27.1341 67.3836 27.1908C67.557 27.2979 67.8824 27.4457 67.9038 27.4589C68.4576 27.7915 67.1569 27.0987 66.9659 27.0342C66.4634 26.8452 66.902 27.076 65.7191 26.5811C65.6064 26.5339 64.2661 25.9726 65.9364 26.727C62.5785 25.4468 67.5889 27.4501 68.0713 27.8061C68.3137 27.9255 67.9732 27.6954 68.1261 27.757C68.4772 27.8965 69.036 28.2107 69.0157 28.1315C68.9722 27.9604 68.1962 27.613 67.6882 27.332C67.7548 27.336 67.7876 27.3233 67.9004 27.3524C67.7325 27.2973 68.9908 28.0029 69.0366 28.0314C69.0366 28.0313 69.0366 28.0312 69.0367 28.0311ZM60.4883 24.8455C59.6998 24.6383 59.7455 24.7285 59.0209 24.555C58.3631 24.516 59.6379 24.7256 59.7816 24.7649C60.4493 24.9185 60.4193 24.9899 61.1039 25.1292C60.8815 25.0282 60.7006 24.9391 60.4883 24.8455ZM67.1125 27.2001C66.6081 26.9981 67.4795 27.423 67.5092 27.4505C67.8609 27.6997 65.2562 26.4395 67.1125 27.2001ZM27.5019 40.0937C27.3717 40.337 27.4861 40.1992 27.3849 40.4204C27.2811 40.6405 26.8913 41.3771 26.9236 41.369C26.9506 41.3573 27.6705 40.0163 27.0194 41.3964C27.0534 41.3553 27.055 41.3753 27.0764 41.3578C27.2545 40.98 27.4438 40.6001 27.6381 40.2297C27.4977 40.4155 27.3548 40.6077 27.2233 40.7904C27.3009 40.5649 27.3967 40.4645 27.4022 40.4534C27.4022 40.4533 27.4022 40.4533 27.4021 40.4533C27.5989 40.0604 27.7987 39.5504 27.5019 40.0937ZM43.4633 26.1161C43.5062 25.9972 42.9373 26.329 42.6978 26.4424C42.4569 26.5534 42.1072 26.6667 42.2496 26.6498C42.6536 26.5023 43.4569 26.1274 43.4632 26.1159C43.4633 26.116 43.4633 26.116 43.4633 26.1161ZM56.1341 24.214C55.4523 24.1938 55.5611 24.2211 54.7325 24.1673C54.7641 24.191 54.7957 24.2153 54.8271 24.2388C55.4839 24.2614 55.4404 24.1905 56.2019 24.2682C56.3261 24.2825 56.0561 24.3129 56.6184 24.3423C56.4578 24.2997 56.2945 24.2552 56.1341 24.214ZM52.7682 24.2491C53.5431 24.2193 54.1613 24.0193 52.7261 24.1452C52.5142 24.1669 52.1864 24.2784 52.7682 24.2491ZM31.5876 34.1718C30.712 35.1733 31.7199 34.0464 31.9797 33.8162C29.9607 36.1567 32.188 33.5318 32.4922 33.3969C32.7321 33.1059 33.1892 32.5625 32.6243 33.1087C32.3908 33.3389 32.4949 33.2731 32.481 33.287C32.0604 33.7192 32.0744 33.6329 31.5876 34.1718ZM61.8569 25.1783C61.8081 25.1666 61.8755 25.2179 61.7199 25.1827C61.5639 25.1469 61.2205 25.0369 61.1811 25.0479C61.1418 25.0569 61.8383 25.2512 62.0551 25.2997C62.2719 25.3463 62.2974 25.2868 61.8569 25.1783ZM56.858 24.1896C56.1966 24.1524 57.2627 24.368 57.4065 24.3884C58.6655 24.5344 56.8176 24.2129 56.858 24.1896ZM33.614 31.8204C32.4844 32.9747 33.4024 32.2211 34.1934 31.6034C34.2842 31.5061 34.3783 31.407 34.4692 31.312C34.069 31.7708 33.3163 32.5062 35.0527 30.9335C34.0583 31.7447 34.8663 31.0364 34.8707 31.0281C34.8807 30.8184 33.4912 32.1307 33.6151 31.8194C33.6147 31.8197 33.6144 31.82 33.614 31.8204ZM63.9045 25.8515C64.5661 26.067 66.2421 26.7496 65.4876 26.3659C64.9648 26.1797 64.4351 26.0075 63.9045 25.8515ZM23.9197 55.4927C23.9133 56.0702 23.9516 56.5977 24.0296 57.3015C24.0151 56.6614 24.0631 57.0773 24.0988 57.2904C24.1525 57.6125 24.0672 56.8274 24.0728 56.8259C24.1251 56.8351 24.1698 57.3344 24.0763 56.198C24.1137 56.4785 24.1547 56.7537 24.1996 57.031C24.1194 56.1698 24.1435 55.959 24.1538 55.4085C24.0869 55.945 24.103 55.2437 24.0442 54.6055C24.0136 54.2859 23.9195 55.2017 23.9198 55.4949C23.9197 55.4941 23.9197 55.4934 23.9197 55.4927ZM32.4042 32.9693C32.3005 33.1004 32.2121 33.2262 32.1163 33.3563C31.9976 33.4848 31.8796 33.6144 31.7632 33.7449C31.7374 33.7506 31.7136 33.7533 31.6858 33.7622C31.5278 33.9304 31.6039 33.8779 31.5596 33.9302C31.5595 33.9302 31.5594 33.9301 31.5594 33.9301C30.9283 34.6842 30.6747 34.9946 30.1628 35.5726C30.1996 35.601 30.2363 35.6294 30.273 35.6579C30.3751 35.5188 30.4795 35.3793 30.5841 35.2421C30.6219 35.1549 30.6605 35.0676 30.6993 34.9807C30.8365 34.8346 30.974 34.691 31.114 34.5478C31.2108 34.4199 31.3297 34.2683 31.4148 34.1584C32.0374 33.6453 30.7802 34.9507 30.8206 35.0055C30.8315 35.0276 32.022 33.6534 32.1958 33.4561C32.2197 33.4265 31.8773 33.6454 32.3739 33.1969C32.4535 33.1278 32.6224 33.2441 33.0125 32.6196C33.0692 32.5309 32.721 32.6871 32.4042 32.9693ZM28.2645 38.1673C28.8968 37.3468 26.8679 40.5633 27.7772 39.1932C27.6025 39.6314 27.6437 39.5534 27.9219 39.1718C27.9463 39.1382 27.8017 39.4287 27.8173 39.4059C28.0564 39.0372 28.3138 38.5772 28.3628 38.6026C28.4212 38.5 28.477 38.4035 28.5367 38.3013C28.2348 38.695 28.6139 38.0069 28.7448 37.7289C28.8034 37.6018 28.6257 37.8663 28.6743 37.7589C28.6917 37.7186 28.9463 37.3532 28.942 37.3284C28.9295 37.2745 28.7259 37.4751 28.4453 37.8615C28.4453 37.8615 28.4453 37.8615 28.4452 37.8615C28.3836 37.9639 28.3249 38.0641 28.2645 38.1673ZM45.4118 25.1426C45.6016 25.1657 46.2735 24.9827 45.0012 25.4054C45.0691 25.3993 45.1385 25.3929 45.206 25.3874C45.4211 25.3201 45.6304 25.257 45.851 25.1935C46.4585 24.7886 47.7471 24.7481 46.9249 24.7817C46.8351 24.7854 46.3183 24.9343 46.8223 24.7618C46.8215 24.7619 46.8208 24.762 46.8201 24.7622C46.1044 24.9558 46.0195 25.0085 45.4118 25.1426ZM40.8069 26.9948C39.3382 27.8755 42.9787 26.0743 42.3568 26.3396C42.2924 26.3489 40.7168 27.1109 40.8069 26.9948ZM54.072 23.8158C54.0473 23.8157 54.0233 23.8157 54 23.8158C53.2944 23.8212 53.2529 23.9085 53.3282 23.9346C53.4036 23.9613 53.9051 23.9277 54 23.9314C54.0031 23.9315 54.0057 23.9316 54.0079 23.9317C54.1221 23.9399 54.0551 23.9464 54 23.9538C53.9538 23.96 53.9159 23.9668 54 23.9754C54.0129 23.9767 54.0287 23.9781 54.0477 23.9795C54.1463 23.9793 55.4782 24.045 55.537 24.0515C55.8783 24.0492 55.3846 23.9541 55.4824 23.9514C55.8013 23.94 56.2304 24.0063 56.3245 23.9771C56.5288 23.9126 55.7193 23.9376 55.5827 23.9348C55.1749 23.9187 55.2126 23.8769 54.9062 23.8579C54.5997 23.8403 54.3983 23.8525 54.1264 23.848C54.0358 23.8466 54.1112 23.8162 54.072 23.8158ZM51.5393 24.0925C52.3327 23.9625 50.3824 24.0581 50.1531 24.1186C49.4825 24.2477 51.1632 24.1404 51.5393 24.0925ZM29.875 36.1485C30.2744 35.5325 29.2258 36.8812 28.9803 37.3063C29.0427 37.2385 29.7336 36.356 29.875 36.1485ZM33.9459 31.52C33.4552 31.9831 34.1842 31.4558 34.6124 31.0947C34.8205 30.8308 34.5906 31.0388 34.3109 31.2774C34.0326 31.517 34.333 31.1626 33.9459 31.52ZM62.301 25.0505C62.1643 24.9891 59.874 24.4972 61.1764 24.8333C61.2762 24.848 62.8607 25.2782 62.9777 25.3158C63.2228 25.3706 62.6615 25.1551 62.301 25.0505ZM36.4138 29.4145C36.1566 29.6713 35.8757 29.8813 36.1805 29.7415C36.1809 29.7412 36.1813 29.7409 36.1817 29.7406C35.47 30.2965 35.3572 30.2183 35.2044 30.3405C34.6784 30.7773 35.2452 30.4491 34.9346 30.7445C35.6878 30.0968 35.5084 30.3283 36.1123 29.877C36.247 29.7753 36.7741 29.3482 36.8425 29.2721C36.9095 29.1946 36.5811 29.3304 36.4138 29.4145ZM65.4361 26.1236C64.7105 25.8032 63.9957 25.6441 65.0155 26.0494C65.5092 26.253 65.8764 26.3225 65.4361 26.1236ZM30.3578 72.7072C30.3023 72.5968 30.2451 72.4833 30.1855 72.3654C30.3687 72.5928 30.5554 72.8174 30.745 73.039C30.5928 72.8658 30.4423 72.6904 30.2929 72.512C30.6249 72.9477 30.7496 73.1706 30.3587 72.7083C30.3584 72.708 30.3581 72.7076 30.3578 72.7072ZM46.4519 83.214C46.6832 83.2998 47.1716 83.3385 47.1131 83.3184C46.6743 83.1721 46.1301 83.095 46.4519 83.214ZM29.0597 36.8999C28.5389 37.6538 28.9876 37.1954 29.3146 36.742C29.0997 37.01 29.3607 36.476 29.0597 36.8999ZM40.045 80.7445C39.9772 80.6972 39.909 80.6494 39.833 80.597C40.0809 80.7453 40.1216 80.7762 40.045 80.7445ZM61.9697 24.8464C61.8373 24.7958 60.8375 24.5386 60.6971 24.5234C60.4096 24.4835 61.18 24.7239 61.6412 24.8263C61.6926 24.8367 62.1015 24.8919 61.9676 24.8459C61.9683 24.8461 61.969 24.8463 61.9697 24.8464ZM31.1094 73.6902C31.1092 73.6882 31.1106 73.6881 31.1133 73.6897C31.1118 73.6896 31.1111 73.6905 31.1094 73.6902ZM66.5896 81.5876C66.5837 81.5882 66.5801 81.5877 66.58 81.5858C66.5827 81.5865 66.5875 81.5864 66.5896 81.5876ZM54.7767 23.6908C54.4344 23.564 53.6312 23.6258 54.2635 23.6852C54.2989 23.6879 54.6932 23.6878 54.7767 23.6908Z" fill="white"/>
</svg>
