<svg width="30" height="30" viewBox="0 0 30 30" fill="none" xmlns="http://www.w3.org/2000/svg">
<g clip-path="url(#clip0_179_848)">
<path d="M25.705 18.5001C24.9466 20.8412 23.4415 22.8691 21.4204 24.2729C19.3992 25.6768 16.9734 26.3792 14.5149 26.2726C12.0563 26.1659 9.70051 25.256 7.80853 23.6824C5.91655 22.1087 4.59275 19.9581 4.04 17.5601L6.1675 17.1401L2.1175 12.9501L-0.00250244 18.3676L2.24 17.9276C2.86584 20.7426 4.40134 23.2731 6.60922 25.1281C8.81711 26.9831 11.5745 28.0594 14.4552 28.1905C17.3359 28.3217 20.1797 27.5005 22.547 25.8538C24.9143 24.2071 26.6734 21.8265 27.5525 19.0801L25.705 18.5001ZM27.795 12.1501C27.1688 9.3352 25.6331 6.80487 23.425 4.95012C21.217 3.09536 18.4595 2.01941 15.5788 1.88853C12.6981 1.75765 9.85448 2.57914 7.48734 4.22603C5.1202 5.87293 3.36132 8.25357 2.4825 11.0001L4.265 11.5801C5.02314 9.23892 6.528 7.21092 8.549 5.80685C10.57 4.40279 12.9956 3.70011 15.4542 3.8065C17.9127 3.91288 20.2686 4.82247 22.1607 6.39587C24.0529 7.96927 25.3769 10.1197 25.93 12.5176L23.8025 12.9401L27.8525 17.1201L29.9975 11.7101L27.795 12.1501Z" fill="#138DB6"/>
<path d="M22.605 20.3299C22.692 20.4186 22.7607 20.5235 22.8072 20.6387C22.8536 20.7539 22.8769 20.8771 22.8758 21.0013C22.8746 21.1255 22.849 21.2482 22.8004 21.3625C22.7518 21.4768 22.6812 21.5804 22.5925 21.6674C22.5039 21.7544 22.399 21.8231 22.2838 21.8696C22.1686 21.9161 22.0454 21.9394 21.9212 21.9382C21.797 21.937 21.6742 21.9114 21.5599 21.8628C21.4456 21.8142 21.342 21.7436 21.255 21.6549L17.8675 18.2049C17.695 18.0276 17.5984 17.7899 17.5984 17.5424C17.5984 17.295 17.695 17.0573 17.8675 16.8799C18.5276 16.2088 18.935 15.3299 19.0205 14.3924C19.1059 13.455 18.8642 12.5169 18.3364 11.7375C17.8085 10.958 17.0271 10.3854 16.1249 10.1168C15.2227 9.84825 14.2554 9.90032 13.3872 10.2642C12.519 10.628 11.8036 11.2812 11.3625 12.1128C10.9213 12.9444 10.7817 13.903 10.9673 14.8259C11.1529 15.7487 11.6523 16.5789 12.3806 17.1753C13.1089 17.7717 14.0212 18.0975 14.9625 18.0974C15.2135 18.0974 15.4542 18.1971 15.6316 18.3746C15.8091 18.5521 15.9088 18.7927 15.9088 19.0437C15.9088 19.2947 15.8091 19.5353 15.6316 19.7128C15.4542 19.8903 15.2135 19.9899 14.9625 19.9899C13.6254 19.9894 12.3274 19.5394 11.2768 18.7122C10.2263 17.8851 9.48419 16.7289 9.16983 15.4293C8.85547 14.1297 8.98704 12.7622 9.54343 11.5463C10.0998 10.3305 11.0487 9.33699 12.2377 8.72536C13.4267 8.11372 14.7867 7.91947 16.0994 8.17382C17.4121 8.42817 18.6012 9.11635 19.4756 10.1278C20.3501 11.1393 20.8593 12.4153 20.9213 13.751C20.9833 15.0866 20.5945 16.4043 19.8175 17.4924L22.605 20.3299Z" fill="#138DB6"/>
</g>
<defs>
<clipPath id="clip0_179_848">
<rect width="30" height="30" fill="white"/>
</clipPath>
</defs>
</svg>
