<svg width="30" height="30" viewBox="0 0 30 30" fill="none" xmlns="http://www.w3.org/2000/svg">
<path d="M12.5 9.375L15 11.875L17.5 9.375" stroke="#138DB6" stroke-width="2" stroke-linecap="round" stroke-linejoin="round"/>
<path d="M15 11.875V5C15 3.61929 16.1193 2.5 17.5 2.5H25C26.3807 2.5 27.5 3.61929 27.5 5V11.875" stroke="#138DB6" stroke-width="2" stroke-linecap="round" stroke-linejoin="round"/>
<path d="M17.5 20.625L15 18.125L12.5 20.625" stroke="#138DB6" stroke-width="2" stroke-linecap="round" stroke-linejoin="round"/>
<path d="M15 18.125V25C15 26.3807 13.8807 27.5 12.5 27.5H5C3.61929 27.5 2.5 26.3807 2.5 25V18.125" stroke="#138DB6" stroke-width="2" stroke-linecap="round" stroke-linejoin="round"/>
<path d="M20.625 12.5L18.125 15L20.625 17.5" stroke="#138DB6" stroke-width="2" stroke-linecap="round" stroke-linejoin="round"/>
<path d="M18.125 15H25C26.3807 15 27.5 16.1193 27.5 17.5V25C27.5 26.3807 26.3807 27.5 25 27.5H18.125" stroke="#138DB6" stroke-width="2" stroke-linecap="round" stroke-linejoin="round"/>
<path d="M9.375 17.5L11.875 15L9.375 12.5" stroke="#138DB6" stroke-width="2" stroke-linecap="round" stroke-linejoin="round"/>
<path d="M11.875 15H5C3.61929 15 2.5 13.8807 2.5 12.5V5C2.5 3.61929 3.61929 2.5 5 2.5H11.875" stroke="#138DB6" stroke-width="2" stroke-linecap="round" stroke-linejoin="round"/>
</svg>
